<svg width="24" height="24" viewBox="0 0 24 24" fill="none" xmlns="http://www.w3.org/2000/svg">
    <g clip-path="url(#clip0_395_10176)">
        <path
            d="M4.0308 23.9999C3.72256 23.9987 3.41849 23.9267 3.1409 23.7891C2.80063 23.6251 2.51276 23.3652 2.31079 23.0398C2.10881 22.7145 2.00104 22.3369 2 21.9511V2.04878C2.00149 1.7772 2.05528 1.5086 2.15829 1.25843C2.26129 1.00826 2.41148 0.781449 2.60021 0.591048C2.78894 0.400648 3.01249 0.250412 3.25801 0.14898C3.50352 0.0475475 3.76616 -0.00307912 4.0308 1.1351e-05H20.0034C20.532 0.00308462 21.0381 0.219923 21.4119 0.603478C21.7857 0.987032 21.997 1.50636 22 2.04878V21.9511C21.9926 22.3219 21.8873 22.6836 21.6952 22.9977C21.5032 23.3119 21.2317 23.5666 20.9097 23.7349C20.5876 23.9031 20.2271 23.9785 19.8666 23.953C19.5061 23.9275 19.159 23.8021 18.8625 23.5901L12.2453 18.4975C12.1967 18.4576 12.1364 18.4358 12.0742 18.4358C12.0119 18.4358 11.9516 18.4576 11.903 18.4975L5.22875 23.5901C4.88239 23.8546 4.46254 23.9982 4.0308 23.9999Z" fill="white"/>
    </g>
    <defs>
        <clipPath id="clip0_395_10176">
            <rect width="24" height="24" fill="white"/>
        </clipPath>
    </defs>
</svg>
