<svg width="314" height="78" viewBox="0 0 314 78" fill="none" xmlns="http://www.w3.org/2000/svg">
<g clip-path="url(#clip0_876_127873)">
<path d="M101.944 27.8833C101.929 28.4161 102.03 28.9459 102.242 29.4352C102.453 29.9244 102.77 30.3613 103.169 30.7148C104.121 31.5345 105.213 32.175 106.393 32.6053C107.883 33.1744 109.409 33.6473 110.959 34.021C112.626 34.4374 114.408 34.8538 116.191 35.3951C117.97 35.8911 119.718 36.4947 121.424 37.2023C123.071 37.8785 124.609 38.7933 125.989 39.9172C127.342 41.0414 128.444 42.4374 129.222 44.0146C130.079 45.8593 130.496 47.8778 130.438 49.9108C130.466 52.0084 129.965 54.0792 128.98 55.932C128.001 57.7567 126.616 59.3323 124.931 60.5373C123.083 61.8531 121.019 62.8367 118.833 63.4438C116.361 64.1446 113.803 64.4895 111.234 64.4682C108.654 64.4935 106.086 64.0939 103.636 63.2856C101.38 62.5454 99.2847 61.3839 97.462 59.8628C95.6659 58.3611 94.2042 56.5001 93.1712 54.3996C92.0493 52.0846 91.3926 49.5721 91.2383 47.0044H101.553C102.447 52.3509 105.805 55.0242 111.626 55.0242C113.885 55.1295 116.133 54.6566 118.158 53.6501C118.878 53.3228 119.49 52.7974 119.922 52.1352C120.354 51.473 120.589 50.7015 120.599 49.9108C120.622 49.1793 120.434 48.4567 120.057 47.8291C119.68 47.2015 119.131 46.6955 118.474 46.3714C116.805 45.4884 115.034 44.8144 113.2 44.3644C111.101 43.8092 108.818 43.254 106.352 42.6988C103.979 42.1821 101.679 41.3766 99.5032 40.3003C97.4368 39.2794 95.6324 37.7978 94.2293 35.9698C92.813 34.1376 92.1048 31.6725 92.1048 28.5745C92.0628 26.3551 92.5482 24.1574 93.5211 22.1619C94.445 20.3238 95.779 18.7225 97.4203 17.4816C99.1577 16.1817 101.117 15.2082 103.202 14.6085C105.506 13.9382 107.894 13.6071 110.293 13.6257C115.642 13.6257 119.996 15.0137 123.357 17.7897C126.717 20.5657 128.528 24.5299 128.789 29.6821H118.474C118.058 27.2753 117.108 25.5681 115.642 24.5687C114 23.5234 112.079 23.0033 110.134 23.078C107.452 23.078 105.416 23.5361 104.027 24.4521C103.411 24.7924 102.894 25.2882 102.528 25.8902C102.163 26.4922 101.961 27.1794 101.944 27.8833Z" fill="#F3F1F3"/>
<path d="M130.438 25.2829H132.804L133.587 16.8633H142.243V25.2829H148.7V34.3354H142.243V49.0427C142.243 51.1413 142.643 52.6237 143.426 53.4898C144.21 54.3559 145.576 54.789 147.517 54.789H149.092V63.8249H146.259C141.899 63.8249 138.566 62.5507 136.261 60.0023C133.956 57.4539 132.804 53.7952 132.804 49.026V34.3354H130.438V25.2829Z" fill="#F3F1F3"/>
<path d="M179.71 59.4273C178.148 61.0653 176.257 62.3539 174.161 63.2082C172.1 64.0459 169.895 64.4731 167.671 64.4658C165.131 64.484 162.615 63.9883 160.272 63.0084C158.007 62.0697 155.957 60.6782 154.248 58.9193C152.514 57.1166 151.15 54.9918 150.233 52.665C149.242 50.1345 148.747 47.4373 148.775 44.7201C148.748 41.9895 149.243 39.2789 150.233 36.7335C151.142 34.3906 152.507 32.2508 154.248 30.4375C155.957 28.6787 158.007 27.2872 160.272 26.3485C162.615 25.3686 165.131 24.8728 167.671 24.8911C169.898 24.8825 172.104 25.3203 174.159 26.1785C176.214 27.0368 178.076 28.2981 179.635 29.8879V25.3242H189.083V63.8245H180.418L179.71 59.4273ZM179.635 44.7201C179.671 43.1822 179.388 41.6536 178.802 40.2313C178.256 38.9629 177.466 37.8141 176.477 36.8501C175.488 35.8952 174.311 35.1576 173.02 34.6848C171.646 34.1797 170.192 33.9258 168.729 33.9353C167.306 33.9274 165.894 34.1815 164.563 34.6848C163.285 35.1641 162.119 35.9012 161.139 36.8501C160.155 37.8095 159.378 38.9602 158.856 40.2313C158.282 41.6571 157.998 43.1833 158.023 44.7201C158.004 46.2294 158.287 47.7273 158.856 49.1256C159.378 50.3966 160.155 51.5473 161.139 52.5067C162.119 53.4557 163.285 54.1927 164.563 54.672C165.894 55.1754 167.306 55.4294 168.729 55.4215C170.192 55.431 171.646 55.1772 173.02 54.672C174.311 54.1992 175.488 53.4616 176.477 52.5067C177.466 51.5427 178.256 50.3939 178.802 49.1256C179.382 47.7308 179.666 46.2304 179.635 44.7201Z" fill="#F3F1F3"/>
<path d="M213.013 34.2533H211.047C209.433 34.2279 207.83 34.5106 206.323 35.0861C205.134 35.5328 204.013 36.1409 202.99 36.8932C202.036 37.6345 201.194 38.5097 200.491 39.4916V63.826H191.051V25.2674H199.707L200.499 30.464C201.998 28.6795 203.88 27.2561 206.006 26.3C208.209 25.3155 210.6 24.8183 213.013 24.8426V34.2533Z" fill="#F3F1F3"/>
<path d="M214.662 25.2829H217.02L217.811 16.8633H226.468V25.2829H232.925V34.3354H226.468V49.0427C226.468 51.1413 226.862 52.6237 227.651 53.4898C228.44 54.3559 229.803 54.789 231.742 54.789H233.317V63.8249H230.484C226.124 63.8249 222.791 62.5507 220.486 60.0023C218.181 57.4539 217.026 53.7952 217.02 49.026V34.3354H214.662V25.2829Z" fill="#F3F1F3"/>
<path d="M234.658 25.2832H244.023V46.0532C244.023 49.3844 244.706 51.7718 246.073 53.2153C247.431 54.6811 249.405 55.4222 252.055 55.4222C253.597 55.4472 255.126 55.1375 256.537 54.5145C257.731 53.9936 258.851 53.3188 259.87 52.5074C260.904 51.6825 261.83 50.7313 262.627 49.6759V25.2832H272.067V63.8252H263.802L262.786 58.7034C261.229 60.4853 259.327 61.9331 257.195 62.9591C254.972 63.9777 252.55 64.487 250.105 64.4498C247.972 64.4718 245.857 64.058 243.89 63.2339C242.046 62.4526 240.384 61.2986 239.007 59.8444C237.621 58.3654 236.539 56.6279 235.825 54.731C235.046 52.6838 234.659 50.5086 234.683 48.3185L234.658 25.2832Z" fill="#F3F1F3"/>
<path d="M283.065 30.0047C284.615 28.3738 286.483 27.0784 288.554 26.1988C290.625 25.3192 292.854 24.8742 295.104 24.8913C297.657 24.8695 300.189 25.3653 302.545 26.3487C304.809 27.2855 306.856 28.6773 308.56 30.4377C310.301 32.251 311.666 34.3908 312.576 36.7337C313.569 39.278 314.064 41.9893 314.034 44.7203C314.055 47.44 313.549 50.1381 312.542 52.6652C311.625 54.992 310.261 57.1168 308.527 58.9195C306.831 60.6702 304.795 62.0561 302.545 62.9919C300.199 63.9709 297.68 64.4666 295.138 64.4493C292.909 64.4544 290.702 64.0127 288.647 63.1501C286.555 62.2745 284.665 60.9759 283.099 59.3359V77.9823H273.617V25.2661H282.274L283.065 30.0047ZM283.14 44.7203C283.109 46.2307 283.393 47.731 283.973 49.1258C284.522 50.3924 285.312 51.5407 286.298 52.5069C287.29 53.4619 288.47 54.1994 289.764 54.6722C291.137 55.1788 292.591 55.4327 294.055 55.4217C295.477 55.4298 296.89 55.1758 298.22 54.6722C299.499 54.1949 300.665 53.4576 301.645 52.5069C302.629 51.5475 303.406 50.3968 303.928 49.1258C304.5 47.7287 304.784 46.23 304.761 44.7203C304.789 43.1831 304.506 41.6561 303.928 40.2315C303.406 38.9604 302.629 37.8097 301.645 36.8503C300.665 35.8997 299.499 35.1624 298.22 34.685C296.89 34.1815 295.477 33.9274 294.055 33.9355C292.591 33.9245 291.137 34.1785 289.764 34.685C288.47 35.1579 287.29 35.8954 286.298 36.8503C285.312 37.8166 284.522 38.9648 283.973 40.2315C283.387 41.6538 283.104 43.1824 283.14 44.7203Z" fill="#F3F1F3"/>
<path fill-rule="evenodd" clip-rule="evenodd" d="M78.0338 39C78.0338 60.5391 60.5653 78 39.0169 78C17.4685 78 0 60.5391 0 39C0 17.4609 17.4685 0 39.0169 0C60.5653 0 78.0338 17.4609 78.0338 39ZM54.6466 60.269L45.3485 44.1793C48.1423 43.4282 50.6414 41.8452 52.5137 39.6406C54.2559 37.4513 55.1678 34.7168 55.0882 31.9205C55.1108 30.0908 54.7266 28.2788 53.9634 26.6156C53.2127 25.0023 52.1078 23.579 50.7307 22.4516C49.2126 21.2256 47.4772 20.2961 45.6151 19.7117C43.4298 19.0248 41.1489 18.6902 38.8582 18.7206H23.8613V60.269H31.7764V45.1037H36.6587L45.4318 60.269H54.6466ZM31.7514 37.85V25.9743H38.4833C41.2577 25.9743 43.3323 26.5073 44.7153 27.5566C45.3658 28.0812 45.8905 28.7447 46.2509 29.4983C46.6114 30.252 46.7985 31.0768 46.7985 31.9122C46.7985 32.7475 46.6114 33.5724 46.2509 34.326C45.8905 35.0797 45.3658 35.7431 44.7153 36.2677C43.3323 37.317 41.2577 37.85 38.4833 37.85H31.7514Z" fill="#F3F1F3"/>
</g>
<defs>
<clipPath id="clip0_876_127873">
<rect width="314" height="78" fill="white"/>
</clipPath>
</defs>
</svg>
