<svg width="24" height="24" viewBox="0 0 24 24" fill="none" xmlns="http://www.w3.org/2000/svg">
<mask id="path-1-inside-1_1299_7687" fill="white">
<path d="M4.6122 11.4349H6V17.4131H4.8C4.4682 17.4131 4.2 17.6809 4.2 18.0109C4.2 18.3409 4.4682 18.6087 4.8 18.6087H19.2C19.5318 18.6087 19.8 18.3409 19.8 18.0109C19.8 17.6809 19.5318 17.4131 19.2 17.4131H18V11.4349H19.3878C19.875 11.4349 20.31 11.1456 20.4966 10.6972C20.6832 10.2488 20.5812 9.73771 20.2002 9.36048L13.1628 3.42595C12.4902 2.85802 11.511 2.85802 10.8372 3.42595L3.7998 9.36048L3.7632 9.39396C3.4188 9.73711 3.3168 10.2488 3.5028 10.6972C3.6888 11.1456 4.125 11.4349 4.6122 11.4349ZM7.2 11.4349H9.6V17.4131H7.2V11.4349ZM13.2 17.4131H10.8V11.4349H13.2V17.4131ZM16.8 17.4131H14.4V11.4349H16.8V17.4131ZM11.6124 4.33822C11.7252 4.24376 11.8626 4.19653 12 4.19653C12.1374 4.19653 12.2754 4.24376 12.3876 4.33822L19.3884 10.2393L4.6104 10.2435L11.6124 4.33822ZM21 20.4022C21 20.7322 20.7318 21 20.4 21H3.6C3.2682 21 3 20.7322 3 20.4022C3 20.0722 3.2682 19.8044 3.6 19.8044H20.4C20.7318 19.8044 21 20.0722 21 20.4022Z"/>
</mask>
<path d="M4.6122 11.4349H6V17.4131H4.8C4.4682 17.4131 4.2 17.6809 4.2 18.0109C4.2 18.3409 4.4682 18.6087 4.8 18.6087H19.2C19.5318 18.6087 19.8 18.3409 19.8 18.0109C19.8 17.6809 19.5318 17.4131 19.2 17.4131H18V11.4349H19.3878C19.875 11.4349 20.31 11.1456 20.4966 10.6972C20.6832 10.2488 20.5812 9.73771 20.2002 9.36048L13.1628 3.42595C12.4902 2.85802 11.511 2.85802 10.8372 3.42595L3.7998 9.36048L3.7632 9.39396C3.4188 9.73711 3.3168 10.2488 3.5028 10.6972C3.6888 11.1456 4.125 11.4349 4.6122 11.4349ZM7.2 11.4349H9.6V17.4131H7.2V11.4349ZM13.2 17.4131H10.8V11.4349H13.2V17.4131ZM16.8 17.4131H14.4V11.4349H16.8V17.4131ZM11.6124 4.33822C11.7252 4.24376 11.8626 4.19653 12 4.19653C12.1374 4.19653 12.2754 4.24376 12.3876 4.33822L19.3884 10.2393L4.6104 10.2435L11.6124 4.33822ZM21 20.4022C21 20.7322 20.7318 21 20.4 21H3.6C3.2682 21 3 20.7322 3 20.4022C3 20.0722 3.2682 19.8044 3.6 19.8044H20.4C20.7318 19.8044 21 20.0722 21 20.4022Z" fill="#F3F1F3"/>
<path d="M6 11.4349H22V-4.56509H6V11.4349ZM6 17.4131V33.4131H22V17.4131H6ZM18 17.4131H2V33.4131H18V17.4131ZM18 11.4349V-4.56509H2V11.4349H18ZM20.2002 9.36048L31.4574 -2.00944L31.0033 -2.45903L30.5148 -2.87098L20.2002 9.36048ZM13.1628 3.42595L2.8404 15.6508L2.84818 15.6574L13.1628 3.42595ZM10.8372 3.42595L0.525542 -8.80801L0.522584 -8.80552L10.8372 3.42595ZM3.7998 9.36048L-6.51482 -2.87098L-6.76131 -2.66312L-6.99922 -2.4455L3.7998 9.36048ZM3.7632 9.39396L-7.03582 -2.41202L-7.28788 -2.18145L-7.52988 -1.94034L3.7632 9.39396ZM7.2 11.4349V-4.56509H-8.8V11.4349H7.2ZM9.6 11.4349H25.6V-4.56509H9.6V11.4349ZM9.6 17.4131V33.4131H25.6V17.4131H9.6ZM7.2 17.4131H-8.8V33.4131H7.2V17.4131ZM13.2 17.4131V33.4131H29.2V17.4131H13.2ZM10.8 17.4131H-5.2V33.4131H10.8V17.4131ZM10.8 11.4349V-4.56509H-5.2V11.4349H10.8ZM13.2 11.4349H29.2V-4.56509H13.2V11.4349ZM16.8 17.4131V33.4131H32.8V17.4131H16.8ZM14.4 17.4131H-1.6V33.4131H14.4V17.4131ZM14.4 11.4349V-4.56509H-1.6V11.4349H14.4ZM16.8 11.4349H32.8V-4.56509H16.8V11.4349ZM11.6124 4.33822L1.34026 -7.92894L1.3187 -7.91089L1.29721 -7.89277L11.6124 4.33822ZM12.3876 4.33822L22.6996 -7.8955L22.6919 -7.90192L12.3876 4.33822ZM19.3884 10.2393L19.3929 26.2393L63.1811 26.2269L29.7003 -1.99444L19.3884 10.2393ZM4.6104 10.2435L-5.70479 -1.98752L-39.1937 26.2559L4.61493 26.2435L4.6104 10.2435ZM4.6122 27.4349H6V-4.56509H4.6122V27.4349ZM-10 11.4349V17.4131H22V11.4349H-10ZM6 1.41309H4.8V33.4131H6V1.41309ZM4.8 1.41309C-4.32378 1.41309 -11.8 8.79985 -11.8 18.0109H20.2C20.2 26.562 13.2602 33.4131 4.8 33.4131V1.41309ZM-11.8 18.0109C-11.8 27.222 -4.32378 34.6087 4.8 34.6087V2.60873C13.2602 2.60873 20.2 9.45984 20.2 18.0109H-11.8ZM4.8 34.6087H19.2V2.60873H4.8V34.6087ZM19.2 34.6087C28.3238 34.6087 35.8 27.222 35.8 18.0109H3.8C3.8 9.45984 10.7398 2.60873 19.2 2.60873V34.6087ZM35.8 18.0109C35.8 8.79985 28.3238 1.41309 19.2 1.41309V33.4131C10.7398 33.4131 3.8 26.562 3.8 18.0109H35.8ZM19.2 1.41309H18V33.4131H19.2V1.41309ZM34 17.4131V11.4349H2V17.4131H34ZM18 27.4349H19.3878V-4.56509H18V27.4349ZM19.3878 27.4349C26.3066 27.4349 32.5875 23.2866 35.2684 16.8449L5.72482 4.54948C8.03252 -0.995468 13.4434 -4.56509 19.3878 -4.56509V27.4349ZM35.2684 16.8449C38.0967 10.0491 36.1997 2.68583 31.4574 -2.00944L8.94299 20.7304C4.9627 16.7896 3.26973 10.4486 5.72482 4.54948L35.2684 16.8449ZM30.5148 -2.87098L23.4774 -8.80552L2.84818 15.6574L9.88558 21.5919L30.5148 -2.87098ZM23.4852 -8.79895C16.8461 -14.4048 7.1515 -14.3928 0.525543 -8.80801L21.1489 15.6599C15.8705 20.1089 8.13429 20.1209 2.8404 15.6508L23.4852 -8.79895ZM0.522584 -8.80552L-6.51482 -2.87098L14.1144 21.5919L21.1518 15.6574L0.522584 -8.80552ZM-6.99922 -2.4455L-7.03582 -2.41202L14.5622 21.1999L14.5988 21.1665L-6.99922 -2.4455ZM-7.52988 -1.94034C-12.4667 2.97853 -13.9478 10.3875 -11.276 16.8281L18.2816 4.56634C20.5814 10.1102 19.3043 16.4957 15.0563 20.7283L-7.52988 -1.94034ZM-11.276 16.8281C-8.58912 23.3049 -2.2847 27.4349 4.6122 27.4349V-4.56509C10.5347 -4.56509 15.9667 -1.01378 18.2816 4.56634L-11.276 16.8281ZM7.2 27.4349H9.6V-4.56509H7.2V27.4349ZM-6.4 11.4349V17.4131H25.6V11.4349H-6.4ZM9.6 1.41309H7.2V33.4131H9.6V1.41309ZM23.2 17.4131V11.4349H-8.8V17.4131H23.2ZM13.2 1.41309H10.8V33.4131H13.2V1.41309ZM26.8 17.4131V11.4349H-5.2V17.4131H26.8ZM10.8 27.4349H13.2V-4.56509H10.8V27.4349ZM-2.8 11.4349V17.4131H29.2V11.4349H-2.8ZM16.8 1.41309H14.4V33.4131H16.8V1.41309ZM30.4 17.4131V11.4349H-1.6V17.4131H30.4ZM14.4 27.4349H16.8V-4.56509H14.4V27.4349ZM0.800001 11.4349V17.4131H32.8V11.4349H0.800001ZM21.8845 16.6054C19.063 18.9681 15.5468 20.1965 12 20.1965V-11.8035C8.17843 -11.8035 4.38745 -10.4806 1.34026 -7.92894L21.8845 16.6054ZM12 20.1965C8.47731 20.1965 4.93889 18.9823 2.08328 16.5784L22.6919 -7.90192C19.6119 -10.4948 15.7975 -11.8035 12 -11.8035V20.1965ZM2.07565 16.5719L9.07645 22.473L29.7003 -1.99444L22.6995 -7.8955L2.07565 16.5719ZM19.3839 -5.76072L4.60587 -5.75654L4.61493 26.2435L19.3929 26.2393L19.3839 -5.76072ZM14.9256 22.4744L21.9276 16.5692L1.29721 -7.89277L-5.70479 -1.98752L14.9256 22.4744ZM5 20.4022C5 11.8511 11.9398 5 20.4 5V37C29.5238 37 37 29.6132 37 20.4022H5ZM20.4 5H3.6V37H20.4V5ZM3.6 5C12.0602 5 19 11.8511 19 20.4022H-13C-13 29.6132 -5.52378 37 3.6 37V5ZM19 20.4022C19 28.9532 12.0602 35.8044 3.6 35.8044V3.80436C-5.52378 3.80436 -13 11.1911 -13 20.4022H19ZM3.6 35.8044H20.4V3.80436H3.6V35.8044ZM20.4 35.8044C11.9398 35.8044 5 28.9532 5 20.4022H37C37 11.1911 29.5238 3.80436 20.4 3.80436V35.8044Z" fill="#F3F1F3" mask="url(#path-1-inside-1_1299_7687)"/>
</svg>
