<svg width="34" height="34" viewBox="0 0 34 34" fill="none" xmlns="http://www.w3.org/2000/svg">
    <path
        d="M27.4513 22.7178C28.7378 23.8541 28.6725 25.441 27.9476 26.5707C27.6733 27.0017 27.2227 27.5568 26.5893 28.1903C25.5117 29.2678 23.5526 30.0254 22.142 29.9992C17.9299 29.9339 15.0826 28.8042 10.139 23.8606C5.19545 18.917 4.06568 16.0763 4.00037 11.8576C3.98078 10.4405 4.73179 8.48786 5.80932 7.41033C6.44277 6.77687 6.99786 6.32627 7.42887 6.05199C8.56517 5.32711 10.1521 5.2618 11.2818 6.5483C11.7978 7.13605 12.699 8.33765 13.2083 9.02988C14.1291 10.2772 14.2728 12.0339 13.2475 13.3596C12.9667 13.7253 12.5357 14.2347 12.1896 14.6396C11.8435 15.0444 11.7782 15.6126 12.0198 16.0828C12.6598 17.3562 13.5022 18.5056 14.4948 19.5048C15.4875 20.5039 16.6434 21.3398 17.9168 21.9798C18.387 22.2149 18.9617 22.1561 19.36 21.81C19.7584 21.4639 20.2743 21.0329 20.64 20.7521C21.9657 19.7268 23.7159 19.8705 24.9697 20.7913C25.6619 21.2941 26.8636 22.1953 27.4513 22.7178Z"
        fill="#F3F1F3" />
    <path
        d="M22.6237 4C18.548 4 15.2482 7.29985 15.2482 11.3756C15.2482 12.7871 15.6409 14.1052 16.3326 15.227L15.2763 18.1249C15.1454 18.4894 15.4913 18.854 15.8652 18.7231L18.8846 17.7322C19.9783 18.3773 21.2589 18.7512 22.6237 18.7512C26.6994 18.7512 29.9992 15.4513 29.9992 11.3756C29.9992 7.29985 26.6901 4 22.6237 4ZM18.8846 12.5441C18.2396 12.5441 17.7161 12.0206 17.7161 11.3756C17.7161 10.7306 18.2396 10.2071 18.8846 10.2071C19.5296 10.2071 20.0531 10.7306 20.0531 11.3756C20.0531 12.0206 19.5296 12.5441 18.8846 12.5441ZM22.6237 12.5441C21.9787 12.5441 21.4552 12.0206 21.4552 11.3756C21.4552 10.7306 21.9787 10.2071 22.6237 10.2071C23.2687 10.2071 23.7922 10.7306 23.7922 11.3756C23.7922 12.0206 23.2687 12.5441 22.6237 12.5441ZM26.3629 12.5441C25.7179 12.5441 25.1944 12.0206 25.1944 11.3756C25.1944 10.7306 25.7179 10.2071 26.3629 10.2071C27.0079 10.2071 27.5314 10.7306 27.5314 11.3756C27.5314 12.0206 27.0079 12.5441 26.3629 12.5441Z"
        fill="#2FA926" />
</svg>
