<svg width="16" height="15" viewBox="0 0 16 15" fill="none" xmlns="http://www.w3.org/2000/svg">
<path d="M9.37422 7.50011L15.2149 1.65911C15.595 1.27918 15.595 0.664882 15.2149 0.28495C14.835 -0.0949832 14.2207 -0.0949832 13.8408 0.28495L7.99991 6.12595L2.15921 0.28495C1.77911 -0.0949832 1.165 -0.0949832 0.785077 0.28495C0.404974 0.664882 0.404974 1.27918 0.785077 1.65911L6.62578 7.50011L0.785077 13.3411C0.404974 13.721 0.404974 14.3353 0.785077 14.7153C0.974417 14.9048 1.22337 15 1.47214 15C1.72092 15 1.96969 14.9048 2.15921 14.7153L7.99991 8.87428L13.8408 14.7153C14.0303 14.9048 14.2791 15 14.5279 15C14.7766 15 15.0254 14.9048 15.2149 14.7153C15.595 14.3353 15.595 13.721 15.2149 13.3411L9.37422 7.50011Z" fill="#F3F1F3"/>
</svg>
