<svg width="24" height="24" viewBox="0 0 24 24" fill="none" xmlns="http://www.w3.org/2000/svg">
    <path d="M17.5652 4.0128C17.2916 3.80784 16.9737 3.67418 16.6388 3.62326C16.3039 3.57234 15.962 3.60568 15.6424 3.72042L7.52643 6.63243H4.8039C2.8168 6.63243 1.2002 8.55466 1.2002 10.9172C1.2002 13.2797 2.8168 15.2019 4.8039 15.2019H5.03803V19.7055C5.03803 19.8897 5.10917 20.0664 5.2358 20.1967C5.36242 20.3269 5.53417 20.4001 5.71325 20.4001H5.71785L6.65316 20.3935C6.74183 20.3932 6.82957 20.375 6.91138 20.3398C6.99319 20.3046 7.06746 20.2532 7.12995 20.1885C7.19244 20.1237 7.24193 20.047 7.27559 19.9626C7.30925 19.8782 7.32642 19.7878 7.32612 19.6966C7.32583 19.6054 7.30807 19.5152 7.27386 19.431C7.23965 19.3468 7.18967 19.2704 7.12676 19.2062C7.06385 19.1419 6.98925 19.091 6.90721 19.0564C6.82518 19.0217 6.73731 19.0041 6.64864 19.0044H6.644L6.38847 19.0062V15.2023H7.52643L15.6424 18.1143C15.8637 18.1942 16.0965 18.2351 16.331 18.2353C16.7742 18.2333 17.2058 18.0888 17.5652 17.822C18.2497 17.3219 18.6582 16.4585 18.6582 15.5125V6.32221C18.6583 5.37627 18.2497 4.51295 17.5652 4.0128ZM2.55064 10.9174C2.55064 9.32066 3.56145 8.02182 4.8039 8.02182H6.96558V13.8132H4.8039C3.56145 13.8132 2.55064 12.5141 2.55064 10.9174ZM17.3079 15.5125C17.3079 16.002 17.1069 16.453 16.7832 16.6894C16.6853 16.766 16.5705 16.8164 16.449 16.8361C16.3276 16.8559 16.2032 16.8444 16.0871 16.8027L8.31602 14.0144V7.82039L16.0871 5.03206C16.2032 4.99034 16.3276 4.97885 16.4491 4.99862C16.5706 5.01839 16.6855 5.06881 16.7834 5.14537C17.1071 5.38183 17.3081 5.83279 17.3081 6.32226L17.3079 15.5125ZM20.1734 5.64334C20.1371 5.56009 20.1172 5.4703 20.1147 5.37912C20.1122 5.28794 20.1272 5.19715 20.1588 5.11193C20.1904 5.0267 20.238 4.94872 20.299 4.88243C20.3599 4.81614 20.4329 4.76284 20.5138 4.72558L21.7327 4.16439C21.8137 4.12671 21.9011 4.10586 21.99 4.10302C22.0788 4.10018 22.1674 4.11542 22.2505 4.14786C22.3336 4.1803 22.4097 4.2293 22.4743 4.29205C22.539 4.3548 22.5909 4.43007 22.6273 4.51353C22.6636 4.59699 22.6835 4.68701 22.6859 4.77842C22.6883 4.86983 22.6732 4.96083 22.6413 5.0462C22.6095 5.13157 22.5615 5.20962 22.5003 5.27589C22.439 5.34216 22.3656 5.39533 22.2844 5.43236L21.0655 5.99354C20.9846 6.03088 20.8973 6.05143 20.8087 6.05403C20.72 6.05663 20.6317 6.04123 20.5489 6.0087C20.466 5.97618 20.3902 5.92717 20.3258 5.86448C20.2613 5.80178 20.2095 5.72664 20.1734 5.64334ZM22.6248 17.3202C22.5887 17.4035 22.5369 17.4786 22.4725 17.5413C22.4081 17.604 22.3322 17.653 22.2494 17.6856C22.1665 17.7181 22.0782 17.7335 21.9896 17.7309C21.9009 17.7283 21.8136 17.7078 21.7327 17.6704L20.5138 17.1092C20.4319 17.0726 20.3578 17.0197 20.2958 16.9535C20.2339 16.8872 20.1854 16.809 20.1531 16.7233C20.1207 16.6377 20.1052 16.5463 20.1075 16.4544C20.1098 16.3625 20.1297 16.272 20.1662 16.1882C20.2027 16.1043 20.255 16.0287 20.3201 15.9658C20.3852 15.9029 20.4618 15.8538 20.5455 15.8216C20.6291 15.7893 20.7182 15.7745 20.8074 15.7779C20.8967 15.7812 20.9844 15.8028 21.0656 15.8414L22.2844 16.4026C22.4478 16.4778 22.5755 16.6168 22.6394 16.7888C22.7032 16.9609 22.698 17.152 22.6249 17.3202H22.6248ZM22.8002 10.9174C22.8002 11.1016 22.729 11.2783 22.6024 11.4085C22.4758 11.5388 22.304 11.612 22.1249 11.612H20.7897C20.6106 11.612 20.4389 11.5388 20.3122 11.4085C20.1856 11.2783 20.1145 11.1016 20.1145 10.9174C20.1145 10.7332 20.1856 10.5565 20.3122 10.4262C20.4389 10.296 20.6106 10.2228 20.7897 10.2228H22.125C22.3041 10.2228 22.4758 10.296 22.6024 10.4262C22.7291 10.5565 22.8002 10.7332 22.8002 10.9174ZM11.0929 10.2943V11.6678C11.0929 11.8521 11.0217 12.0287 10.8951 12.159C10.7685 12.2892 10.5967 12.3624 10.4176 12.3624C10.2386 12.3624 10.0668 12.2892 9.94019 12.159C9.81356 12.0287 9.74242 11.8521 9.74242 11.6678V10.2943C9.74242 10.11 9.81356 9.93336 9.94019 9.8031C10.0668 9.67284 10.2386 9.59966 10.4176 9.59966C10.5967 9.59966 10.7685 9.67284 10.8951 9.8031C11.0217 9.93336 11.0929 10.11 11.0929 10.2943Z" fill="#F3F1F3"/>
</svg>

