<svg width="20" height="20" viewBox="0 0 20 20" fill="none" xmlns="http://www.w3.org/2000/svg">
<g clip-path="url(#clip0_1299_9889)">
<path fill-rule="evenodd" clip-rule="evenodd" d="M12.6379 16.9985L15.1457 19.0182C15.2441 19.0978 15.3631 19.1479 15.4888 19.1627C15.6146 19.1775 15.7419 19.1564 15.8562 19.1018C15.9704 19.0472 16.0668 18.9614 16.1343 18.8543C16.2018 18.7472 16.2376 18.6232 16.2375 18.4966V15.141C17.1415 14.4106 17.8729 13.4893 18.3792 12.4431C18.8856 11.3969 19.1544 10.2518 19.1663 9.08955C19.1663 4.55466 15.0786 0.833984 9.99967 0.833984C4.92075 0.833984 0.833008 4.55466 0.833008 9.08955C0.833008 13.6244 4.92075 17.347 9.99967 17.347C10.8906 17.3485 11.7779 17.2313 12.6379 16.9985ZM13.208 15.7354C13.1222 15.6664 13.0207 15.6196 12.9125 15.5991C12.8043 15.5787 12.6927 15.5851 12.5876 15.618C11.7494 15.8766 10.8769 16.0072 9.99967 16.0055C5.70142 16.0055 2.17447 12.9295 2.17447 9.08955C2.17447 5.25146 5.70142 2.17545 9.99967 2.17545C14.2979 2.17545 17.8249 5.25146 17.8249 9.08955C17.8097 10.1032 17.5609 11.0998 17.0978 12.0017C16.6348 12.9035 15.9699 13.6865 15.155 14.2896C15.0743 14.3521 15.0089 14.4323 14.964 14.5241C14.9191 14.6158 14.8959 14.7166 14.896 14.8187V17.0955L13.208 15.7354Z" fill="#F3F1F3"/>
</g>
<defs>
<clipPath id="clip0_1299_9889">
<rect width="20" height="20" fill="white"/>
</clipPath>
</defs>
</svg>
