<svg width="24" height="24" viewBox="0 0 24 24" fill="none" xmlns="http://www.w3.org/2000/svg">
    <path d="M9.15245 14.0339C9.15245 15.1572 10.0631 16.0678 11.1863 16.0678H12.8135C13.9367 16.0678 14.8474 15.1572 14.8474 14.0339C14.8474 12.9106 13.9367 12 12.8135 12H11.1863C10.0631 12 9.15245 11.0894 9.15245 9.96613C9.15245 8.84285 10.0631 7.93223 11.1863 7.93223H12.8135C13.9367 7.93223 14.8474 8.84285 14.8474 9.96613M11.9999 7.93223V5.49155M11.9999 18.5085V16.0678M20.853 3.33025L16.8007 3.6848M16.8007 3.6848L17.1553 7.7371M16.8007 3.6848C19.6697 5.34478 21.5999 8.44701 21.5999 12C21.5999 17.302 17.3018 21.6 11.9999 21.6M3.14679 20.6698L7.19909 20.3153M7.19909 20.3153L6.84454 16.263M7.19909 20.3153C4.33011 18.6553 2.3999 15.553 2.3999 12C2.3999 6.6981 6.69798 2.40002 11.9999 2.40002" stroke="#F3F1F3" stroke-width="1.5" stroke-miterlimit="10"/>
</svg>
