<svg width="16" height="17" viewBox="0 0 16 17" fill="none" xmlns="http://www.w3.org/2000/svg">
<g clip-path="url(#clip0_876_132438)">
<path d="M2.41739 16.5H13.5818C14.7522 16.5 15.7033 15.5489 15.7033 14.3785V3.80665C15.7033 2.63628 14.7522 1.68516 13.5818 1.68516H12.7404V1.09258C12.7404 0.766652 12.4737 0.5 12.1477 0.5C11.8218 0.5 11.5551 0.766652 11.5551 1.09258V1.68516H4.44407V1.09258C4.44407 0.766652 4.17737 0.5 3.85144 0.5C3.52551 0.5 3.25886 0.766652 3.25886 1.09258V1.68516H2.41739C1.24702 1.68516 0.295898 2.63628 0.295898 3.80665V14.3785C0.295898 15.5489 1.24702 16.5 2.41739 16.5ZM1.48111 3.80665C1.48111 3.29111 1.90185 2.87038 2.41739 2.87038H3.25886V3.46296C3.25886 3.78889 3.52551 4.05554 3.85144 4.05554C4.17737 4.05554 4.44402 3.78889 4.44402 3.46296V2.87038H11.5551V3.46296C11.5551 3.78889 11.8218 4.05554 12.1477 4.05554C12.4737 4.05554 12.7403 3.78889 12.7403 3.46296V2.87038H13.5818C14.0973 2.87038 14.5181 3.29111 14.5181 3.80665V5.53704H1.48111V3.80665ZM1.48111 6.72221H14.5182V14.3785C14.5182 14.8941 14.0974 15.3148 13.5819 15.3148H2.41739C1.90185 15.3148 1.48111 14.8941 1.48111 14.3785V6.72221Z" fill="#CCCCCC"/>
</g>
<defs>
<clipPath id="clip0_876_132438">
<rect width="16" height="16" fill="white" transform="translate(0 0.5)"/>
</clipPath>
</defs>
</svg>
