<svg width="24" height="24" viewBox="0 0 24 24" fill="none" xmlns="http://www.w3.org/2000/svg">
<path d="M21.4915 4.61142L15.7385 19.5692C15.6592 19.7753 15.5365 19.9685 15.3703 20.1347C14.7348 20.7702 13.7046 20.7702 13.0691 20.1347C12.8598 19.9254 12.7195 19.6734 12.6481 19.4067L11.1889 13.9592C11.1175 13.6925 10.9772 13.4404 10.7679 13.2311C10.5586 13.0219 10.3065 12.8815 10.0399 12.8101L4.59233 11.3509C4.32563 11.2795 4.07358 11.1392 3.86432 10.9299C3.22882 10.2945 3.22882 9.26418 3.86432 8.62872C4.0305 8.4625 4.22373 8.33981 4.42981 8.26057L19.3876 2.50754C19.9694 2.28372 20.654 2.40645 21.1233 2.87573C21.5926 3.34498 21.7153 4.02958 21.4915 4.61142Z" stroke="#F3F1F3" stroke-width="1.1" stroke-miterlimit="10" stroke-linecap="round" stroke-linejoin="round"/>
<path d="M5.85122 18.1478L2.39941 21.5996" stroke="#F3F1F3" stroke-width="1.1" stroke-miterlimit="10" stroke-linecap="round" stroke-linejoin="round"/>
<path d="M9.30313 19.2984L7.00195 21.5996" stroke="#F3F1F3" stroke-width="1.1" stroke-miterlimit="10" stroke-linecap="round" stroke-linejoin="round"/>
<path d="M4.70059 14.6969L2.39941 16.998" stroke="#F3F1F3" stroke-width="1.1" stroke-miterlimit="10" stroke-linecap="round" stroke-linejoin="round"/>
<path d="M16.5211 7.47788L13.0693 10.9297" stroke="#F3F1F3" stroke-width="1.1" stroke-miterlimit="10" stroke-linecap="round" stroke-linejoin="round"/>
</svg>
