<svg width="24" height="24" viewBox="0 0 24 24" fill="none" xmlns="http://www.w3.org/2000/svg">
<g clip-path="url(#clip0_1299_6316)">
<path d="M12 0.9375C5.87611 0.9375 0.879094 5.97398 0.938016 12.1087L0.9375 23.0625L1.12088 22.8791C2.67127 21.3287 5.04408 20.9201 7.0043 21.9025C8.48789 22.646 10.1667 23.0633 11.9506 23.0625C18.04 23.0653 23.0035 18.1978 23.062 12.1087C23.1209 5.97398 18.2227 0.9375 12 0.9375Z" stroke="#CCCCCC" stroke-width="1.875" stroke-miterlimit="10" stroke-linecap="round" stroke-linejoin="round"/>
<path d="M9.1875 12C9.1875 12.6472 8.66283 13.1719 8.01562 13.1719C7.36842 13.1719 6.84375 12.6472 6.84375 12C6.84375 11.3528 7.36842 10.8281 8.01562 10.8281C8.66283 10.8281 9.1875 11.3528 9.1875 12Z" fill="#CCCCCC"/>
<path d="M13.2187 12C13.2187 12.6472 12.6941 13.1719 12.0469 13.1719C11.3997 13.1719 10.875 12.6472 10.875 12C10.875 11.3528 11.3997 10.8281 12.0469 10.8281C12.6941 10.8281 13.2187 11.3528 13.2187 12Z" fill="#CCCCCC"/>
<path d="M17.25 12C17.25 12.6472 16.7253 13.1719 16.0781 13.1719C15.4309 13.1719 14.9062 12.6472 14.9062 12C14.9062 11.3528 15.4309 10.8281 16.0781 10.8281C16.7253 10.8281 17.25 11.3528 17.25 12Z" fill="#CCCCCC"/>
</g>
<defs>
<clipPath id="clip0_1299_6316">
<rect width="24" height="24" fill="white"/>
</clipPath>
</defs>
</svg>
