<svg width="20" height="20" viewBox="0 0 20 20" xmlns="http://www.w3.org/2000/svg">
    <defs>
        <mask id="cutout">
            <!-- Full white background = visible -->
            <rect width="20" height="20" fill="white" />

            <!-- Black shapes = transparent cutouts -->
            <path d="M8.04727 5.45393H6.43934V3.846C6.43934 3.52252 6.17707 3.26025 5.85359 3.26025C5.53012 3.26025 5.26785 3.52252 5.26785 3.846V5.4539H3.65996C3.33648 5.4539 3.07422 5.71616 3.07422 6.03964C3.07422 6.36312 3.33648 6.62538 3.65996 6.62538H5.26785V8.23328C5.26785 8.55676 5.53012 8.81903 5.85359 8.81903C6.17707 8.81903 6.43934 8.55676 6.43934 8.23328V6.62538H8.04723C8.3707 6.62538 8.63297 6.36312 8.63297 6.03964C8.63301 5.71616 8.37074 5.45393 8.04727 5.45393Z" fill="black"/>

            <path d="M16.1932 5.45398H11.806C11.4825 5.45398 11.2202 5.71625 11.2202 6.03972C11.2202 6.3632 11.4825 6.62547 11.806 6.62547H16.1933C16.5167 6.62547 16.779 6.3632 16.779 6.03972C16.779 5.71625 16.5167 5.45398 16.1932 5.45398Z" fill="black"/>

            <path d="M6.68195 14.3434L7.81891 13.2065C8.04773 12.9777 8.04773 12.6069 7.81898 12.3781C7.59023 12.1494 7.21934 12.1494 6.99062 12.3781L5.85367 13.5151L4.71672 12.3781C4.48801 12.1494 4.11711 12.1494 3.88836 12.3781C3.65961 12.6069 3.65961 12.9777 3.88836 13.2065L5.02531 14.3434L3.88836 15.4804C3.65961 15.7091 3.65961 16.08 3.88836 16.3087C4.00273 16.4231 4.15262 16.4803 4.3025 16.4803C4.45238 16.4803 4.6023 16.4232 4.71664 16.3087L5.85359 15.1718L6.99055 16.3087C7.10492 16.4231 7.25484 16.4803 7.40469 16.4803C7.55453 16.4803 7.70449 16.4232 7.81883 16.3087C8.04758 16.08 8.04758 15.7091 7.81883 15.4804L6.68195 14.3434Z" fill="black"/>

            <path d="M16.1932 12.5862H11.806C11.4825 12.5862 11.2202 12.8484 11.2202 13.1719C11.2202 13.4954 11.4825 13.7577 11.806 13.7577H16.1933C16.5167 13.7577 16.779 13.4954 16.779 13.1719C16.779 12.8484 16.5167 12.5862 16.1932 12.5862Z" fill="black"/>

            <path d="M16.1932 14.9291H11.806C11.4825 14.9291 11.2202 15.1913 11.2202 15.5148C11.2202 15.8383 11.4825 16.1006 11.806 16.1006H16.1933C16.5167 16.1006 16.779 15.8383 16.779 15.5148C16.779 15.1913 16.5167 14.9291 16.1932 14.9291Z" fill="black"/>
        </mask>
    </defs>

    <!-- Background with mask applied -->
    <rect width="20" height="20" rx="6" fill="#F3F1F3" mask="url(#cutout)"/>
</svg>