<svg width="20" height="20" viewBox="0 0 20 20" fill="none" xmlns="http://www.w3.org/2000/svg">
    <g clip-path="url(#clip0_4599_4965)">
        <path d="M14.0179 0H5.98211C2.68355 0 0 2.6836 0 5.98217V14.0179C0 17.3165 2.68355 20.0001 5.98207 20.0001H14.0178C17.3164 20.0001 19.9999 17.3165 19.9999 14.0179V5.98217C20 2.6836 17.3164 0 14.0179 0ZM18.8285 14.0179C18.8285 16.6705 16.6704 18.8286 14.0179 18.8286H5.98211C3.32949 18.8286 1.17145 16.6705 1.17145 14.0179V5.98217C1.17145 3.32958 3.32949 1.17149 5.98211 1.17149H14.0179C16.6704 1.17149 18.8285 3.32958 18.8285 5.98217L18.8285 14.0179Z" fill="#F3F1F3"/>
        <path d="M8.04702 5.45393H6.43909V3.846C6.43909 3.52252 6.17683 3.26025 5.85335 3.26025C5.52987 3.26025 5.26761 3.52252 5.26761 3.846V5.4539H3.65972C3.33624 5.4539 3.07397 5.71616 3.07397 6.03964C3.07397 6.36312 3.33624 6.62538 3.65972 6.62538H5.26761V8.23328C5.26761 8.55676 5.52987 8.81903 5.85335 8.81903C6.17683 8.81903 6.43909 8.55676 6.43909 8.23328V6.62538H8.04698C8.37046 6.62538 8.63272 6.36312 8.63272 6.03964C8.63276 5.71616 8.3705 5.45393 8.04702 5.45393Z" fill="#F3F1F3"/>
        <path d="M16.1932 5.45386H11.806C11.4825 5.45386 11.2202 5.71612 11.2202 6.0396C11.2202 6.36308 11.4825 6.62535 11.806 6.62535H16.1933C16.5167 6.62535 16.779 6.36308 16.779 6.0396C16.779 5.71612 16.5167 5.45386 16.1932 5.45386Z" fill="#F3F1F3"/>
        <path d="M6.68195 14.3434L7.81891 13.2065C8.04773 12.9777 8.04773 12.6069 7.81898 12.3781C7.59023 12.1494 7.21934 12.1494 6.99062 12.3781L5.85367 13.5151L4.71672 12.3781C4.48801 12.1494 4.11711 12.1494 3.88836 12.3781C3.65961 12.6069 3.65961 12.9777 3.88836 13.2065L5.02531 14.3434L3.88836 15.4804C3.65961 15.7091 3.65961 16.08 3.88836 16.3087C4.00273 16.4231 4.15262 16.4803 4.3025 16.4803C4.45238 16.4803 4.6023 16.4232 4.71664 16.3087L5.85359 15.1718L6.99055 16.3087C7.10492 16.4231 7.25484 16.4803 7.40469 16.4803C7.55453 16.4803 7.70449 16.4232 7.81883 16.3087C8.04758 16.08 8.04758 15.7091 7.81883 15.4804L6.68195 14.3434Z" fill="#F3F1F3"/>
        <path d="M16.1932 12.5862H11.806C11.4825 12.5862 11.2202 12.8484 11.2202 13.1719C11.2202 13.4954 11.4825 13.7577 11.806 13.7577H16.1933C16.5167 13.7577 16.779 13.4954 16.779 13.1719C16.779 12.8484 16.5167 12.5862 16.1932 12.5862Z" fill="#F3F1F3"/>
        <path d="M16.1932 14.9292H11.806C11.4825 14.9292 11.2202 15.1915 11.2202 15.5149C11.2202 15.8384 11.4825 16.1007 11.806 16.1007H16.1933C16.5167 16.1007 16.779 15.8384 16.779 15.5149C16.779 15.1915 16.5167 14.9292 16.1932 14.9292Z" fill="#F3F1F3"/>
    </g>
    <defs>
        <clipPath id="clip0_4599_4965">
            <rect width="20" height="20" fill="white"/>
        </clipPath>
    </defs>
</svg>
