<svg width="24" height="24" viewBox="0 0 24 24" fill="none" xmlns="http://www.w3.org/2000/svg">
<path fill-rule="evenodd" clip-rule="evenodd" d="M15.8411 17.4437H8.20972C7.77214 17.4437 7.41699 17.0792 7.41699 16.6301C7.41699 16.1809 7.77214 15.8164 8.20972 15.8164H15.8411C16.2787 15.8164 16.6339 16.1809 16.6339 16.6301C16.6339 17.0792 16.2787 17.4437 15.8411 17.4437Z" fill="#F3F1F3"/>
<path fill-rule="evenodd" clip-rule="evenodd" d="M15.8411 12.9027H8.20972C7.77214 12.9027 7.41699 12.5382 7.41699 12.0891C7.41699 11.6399 7.77214 11.2754 8.20972 11.2754H15.8411C16.2787 11.2754 16.6339 11.6399 16.6339 12.0891C16.6339 12.5382 16.2787 12.9027 15.8411 12.9027Z" fill="#F3F1F3"/>
<path fill-rule="evenodd" clip-rule="evenodd" d="M11.1217 8.37146H8.20972C7.77214 8.37146 7.41699 8.00694 7.41699 7.5578C7.41699 7.10866 7.77214 6.74414 8.20972 6.74414H11.1217C11.5593 6.74414 11.9145 7.10866 11.9145 7.5578C11.9145 8.00694 11.5593 8.37146 11.1217 8.37146Z" fill="#F3F1F3"/>
<path fill-rule="evenodd" clip-rule="evenodd" d="M16.0449 2.82654L7.9178 2.83088C5.45716 2.84607 3.98585 4.4083 3.98585 7.01093V16.9875C3.98585 19.6075 5.4709 21.1719 7.95585 21.1719L16.083 21.1686C18.5436 21.1535 20.0149 19.5891 20.0149 16.9875V7.01093C20.0149 4.39094 18.5309 2.82654 16.0449 2.82654ZM7.95691 22.7992C4.63378 22.7992 2.40039 20.4635 2.40039 16.9875V7.01093C2.40039 3.50351 4.56402 1.22417 7.91252 1.20356L16.0449 1.19922C19.3681 1.19922 21.6004 3.53497 21.6004 7.01093V16.9875C21.6004 20.4938 19.4368 22.7743 16.0883 22.796L7.95691 22.7992Z" fill="#F3F1F3"/>
</svg>
