<svg width="46" height="46" viewBox="0 0 46 46" fill="none" xmlns="http://www.w3.org/2000/svg">
    <rect width="46" height="46" rx="23" fill="#CCCCCC" />
    <path fill-rule="evenodd" clip-rule="evenodd"
        d="M26.7161 27.9746H19.4961C19.0821 27.9746 18.7461 27.6386 18.7461 27.2246C18.7461 26.8106 19.0821 26.4746 19.4961 26.4746H26.7161C27.1301 26.4746 27.4661 26.8106 27.4661 27.2246C27.4661 27.6386 27.1301 27.9746 26.7161 27.9746Z"
        fill="#2FA926" />
    <path fill-rule="evenodd" clip-rule="evenodd"
        d="M26.7161 23.7871H19.4961C19.0821 23.7871 18.7461 23.4511 18.7461 23.0371C18.7461 22.6231 19.0821 22.2871 19.4961 22.2871H26.7161C27.1301 22.2871 27.4661 22.6231 27.4661 23.0371C27.4661 23.4511 27.1301 23.7871 26.7161 23.7871Z"
        fill="#2FA926" />
    <path fill-rule="evenodd" clip-rule="evenodd"
        d="M22.2511 19.6113H19.4961C19.0821 19.6113 18.7461 19.2753 18.7461 18.8613C18.7461 18.4473 19.0821 18.1113 19.4961 18.1113H22.2511C22.6651 18.1113 23.0011 18.4473 23.0011 18.8613C23.0011 19.2753 22.6651 19.6113 22.2511 19.6113Z"
        fill="#2FA926" />
    <path fill-rule="evenodd" clip-rule="evenodd"
        d="M26.909 14.5L19.22 14.504C16.892 14.518 15.5 15.958 15.5 18.357V27.553C15.5 29.968 16.905 31.41 19.256 31.41L26.945 31.407C29.273 31.393 30.665 29.951 30.665 27.553V18.357C30.665 15.942 29.261 14.5 26.909 14.5ZM19.257 32.91C16.113 32.91 14 30.757 14 27.553V18.357C14 15.124 16.047 13.023 19.215 13.004L26.909 13C30.053 13 32.165 15.153 32.165 18.357V27.553C32.165 30.785 30.118 32.887 26.95 32.907L19.257 32.91Z"
        fill="#2FA926" />
</svg>
