<svg width="200" height="200" viewBox="0 0 200 200" fill="none" xmlns="http://www.w3.org/2000/svg">
    <foreignObject x="10" y="9.33398" width="180" height="180">
        <div xmlns="http://www.w3.org/1999/xhtml"
            style="backdrop-filter:blur(5px);clip-path:url(#bgblur_0_876_130779_clip_path);height:100%;width:100%"></div>
    </foreignObject>
    <g filter="url(#filter0_d_876_130779)" data-figma-bg-blur-radius="10">
        <path
            d="M100 179.334C144.183 179.334 180 143.517 180 99.334C180 55.1512 144.183 19.334 100 19.334C55.8172 19.334 20 55.1512 20 99.334C20 143.517 55.8172 179.334 100 179.334Z"
            fill="#2FA926" fill-opacity="0.22" shape-rendering="crispEdges" />
    </g>
    <path fill-rule="evenodd" clip-rule="evenodd"
        d="M37.5423 60.7826C37.5298 59.8319 37.4105 58.873 37.172 57.9076C36.3355 54.5195 32.6036 52.3444 28.6316 51.833C24.6612 51.3216 20.5322 52.4854 18.9409 55.4325C18.0307 57.1175 17.9051 58.5698 18.2771 59.7942C18.6474 61.0121 19.5262 62.0217 20.7189 62.8085C24.0443 65 29.8683 65.4475 32.5252 64.5312C33.754 64.1067 34.9545 63.5953 36.1236 63.0102C35.4551 66.8408 32.9645 70.4698 29.6406 73.7398C22.4169 80.847 11.2071 86.2413 5.10239 88.2246C4.7744 88.3312 4.59234 88.6951 4.69435 89.0376C4.79635 89.3802 5.14474 89.572 5.47273 89.4655C11.6983 87.4428 23.1263 81.9337 30.4928 74.6856C34.2985 70.9418 37.0103 66.7277 37.4733 62.2971C46.0764 57.4962 53.1416 48.7859 59.182 41.4558C59.4064 41.1853 59.3766 40.7739 59.1161 40.5395C58.8556 40.3068 58.4632 40.3362 58.2388 40.6083C52.4448 47.6385 45.7202 56.0013 37.5423 60.7826ZM36.2916 61.4792C36.3387 60.4105 36.2382 59.3254 35.9667 58.2305C35.2432 55.2981 31.9178 53.5639 28.4793 53.1214C26.3717 52.8509 24.2045 53.0738 22.5049 53.8672C21.4361 54.3655 20.5557 55.0883 20.0253 56.0718C19.3285 57.3617 19.1778 58.4649 19.4634 59.4008C19.749 60.3433 20.4585 61.1006 21.3828 61.7087C24.4132 63.7067 29.716 64.1313 32.1344 63.297C33.5609 62.8053 34.9451 62.1922 36.2916 61.4792Z"
        fill="#2FA926" />
    <circle cx="190" cy="122.668" r="4" fill="#2FA926" />
    <path fill-rule="evenodd" clip-rule="evenodd"
        d="M38.9222 150.264C39.636 149.996 40.3872 149.641 40.9665 149.125C41.6545 148.514 41.9343 147.726 42.1222 146.896C42.3634 145.831 42.4598 144.696 42.7523 143.628C42.8606 143.232 43.0691 143.082 43.1585 143.016C43.3846 142.848 43.6131 142.803 43.828 142.82C44.0828 142.839 44.4328 142.941 44.6629 143.39C44.6957 143.454 44.7384 143.552 44.7671 143.687C44.788 143.785 44.8016 144.093 44.8237 144.22C44.8791 144.532 44.9255 144.845 44.969 145.159C45.1138 146.206 45.1971 147.094 45.6545 148.055C46.2752 149.36 46.8972 150.158 47.7407 150.512C48.5563 150.854 49.5314 150.789 50.7774 150.521C50.8959 150.491 51.0133 150.465 51.1294 150.444C51.6787 150.343 52.2038 150.723 52.3117 151.299C52.4196 151.874 52.0705 152.435 51.5261 152.561C51.4125 152.588 51.3004 152.613 51.1897 152.636C49.506 153.074 47.5568 154.64 46.4241 156.011C46.075 156.433 45.5638 157.615 45.0424 158.369C44.6576 158.925 44.2252 159.292 43.8621 159.421C43.6188 159.508 43.4137 159.495 43.2442 159.451C42.9981 159.387 42.7938 159.247 42.6371 159.023C42.5517 158.901 42.4725 158.738 42.4348 158.529C42.4167 158.428 42.4147 158.172 42.4151 158.057C42.3089 157.672 42.1788 157.296 42.084 156.908C41.858 155.982 41.4145 155.396 40.8877 154.621C40.395 153.896 39.8658 153.441 39.09 153.077C38.9891 153.051 38.1747 152.842 37.8871 152.721C37.467 152.545 37.2668 152.249 37.1942 152.089C37.0707 151.819 37.058 151.583 37.0826 151.386C37.1191 151.096 37.243 150.847 37.4629 150.646C37.5991 150.521 37.8026 150.4 38.075 150.341C38.2855 150.295 38.8438 150.268 38.9222 150.264ZM43.6996 148.755C43.7374 148.843 43.7776 148.932 43.8202 149.022C44.7294 150.933 45.746 152 46.9817 152.517L47.0231 152.534C46.1964 153.18 45.4481 153.902 44.8762 154.594C44.6407 154.879 44.329 155.471 43.9921 156.078C43.6861 155.031 43.1856 154.291 42.5562 153.365C42.0754 152.658 41.5716 152.126 40.9525 151.693C41.433 151.433 41.8912 151.129 42.2904 150.774C42.955 150.183 43.3944 149.499 43.6996 148.755Z"
        fill="#2FA926" />
    <rect x="72.084" y="57" width="126.915" height="45.2487" rx="15.4183" fill="#CCCCCC" />
    <rect x="124.473" y="72.5762" width="42.797" height="5.93425" rx="2.96712" fill="#F3F1F3" />
    <rect x="83.1523" y="81.4785" width="84.3339" height="5.93425" rx="2.96713" fill="#082B08" />
    <ellipse cx="182.766" cy="79.994" rx="7.3788" ry="7.41781" fill="#082B08" />
    <rect x="19" y="94.8301" width="126.915" height="45.2487" rx="15.4183" fill="#F3F1F3" />
    <rect x="50.7285" y="110.408" width="42.797" height="5.93425" rx="2.96712" fill="#2FA926" />
    <rect x="50.7285" y="119.311" width="84.3339" height="5.93425" rx="2.96713" fill="#CCCCCC" />
    <ellipse cx="37.4472" cy="117.826" rx="7.37879" ry="7.41781" fill="#2FA926" />
    <defs>
        <filter id="filter0_d_876_130779" x="10" y="9.33398" width="180" height="180" filterUnits="userSpaceOnUse"
            color-interpolation-filters="sRGB">
            <feFlood flood-opacity="0" result="BackgroundImageFix" />
            <feColorMatrix in="SourceAlpha" type="matrix" values="0 0 0 0 0 0 0 0 0 0 0 0 0 0 0 0 0 0 127 0"
                result="hardAlpha" />
            <feOffset dy="2" />
            <feGaussianBlur stdDeviation="0.5" />
            <feComposite in2="hardAlpha" operator="out" />
            <feColorMatrix type="matrix" values="0 0 0 0 1 0 0 0 0 1 0 0 0 0 1 0 0 0 0.02 0" />
            <feBlend mode="normal" in2="BackgroundImageFix" result="effect1_dropShadow_876_130779" />
            <feBlend mode="normal" in="SourceGraphic" in2="effect1_dropShadow_876_130779" result="shape" />
        </filter>
        <clipPath id="bgblur_0_876_130779_clip_path" transform="translate(-10 -9.33398)">
            <path
                d="M100 179.334C144.183 179.334 180 143.517 180 99.334C180 55.1512 144.183 19.334 100 19.334C55.8172 19.334 20 55.1512 20 99.334C20 143.517 55.8172 179.334 100 179.334Z" />
        </clipPath>
    </defs>
</svg>
