<svg width="30" height="31" viewBox="0 0 30 31" fill="none" xmlns="http://www.w3.org/2000/svg">
<g clip-path="url(#clip0_876_129972)">
<path d="M8.16401 7.20231L5.67812 4.71642C5.33487 4.37317 4.77835 4.37317 4.43517 4.71642C4.09192 5.05966 4.09192 5.61612 4.43517 5.95937L6.92106 8.44526C7.26425 8.78851 7.82083 8.78851 8.16401 8.44526C8.50726 8.10202 8.50726 7.54556 8.16401 7.20231Z" fill="#F3F1F3"/>
<path d="M4.45312 14.4023H0.878906C0.393516 14.4023 0 14.7959 0 15.2812C0 15.7666 0.393516 16.1602 0.878906 16.1602H4.45312C4.93852 16.1602 5.33203 15.7666 5.33203 15.2812C5.33203 14.7959 4.93852 14.4023 4.45312 14.4023Z" fill="#F3F1F3"/>
<path d="M29.1211 14.4023H25.5469C25.0615 14.4023 24.668 14.7959 24.668 15.2812C24.668 15.7666 25.0615 16.1602 25.5469 16.1602H29.1211C29.6065 16.1602 30 15.7666 30 15.2812C30 14.7959 29.6065 14.4023 29.1211 14.4023Z" fill="#F3F1F3"/>
<path d="M25.5654 4.71642C25.2222 4.37317 24.6657 4.37317 24.3224 4.71642L21.8365 7.20231C21.4933 7.54556 21.4933 8.10202 21.8365 8.44526C22.1797 8.78851 22.7363 8.78851 23.0795 8.44526L25.5654 5.95937C25.9086 5.61612 25.9086 5.05966 25.5654 4.71642Z" fill="#F3F1F3"/>
<path d="M15 0.28125C14.5146 0.28125 14.1211 0.674766 14.1211 1.16016V4.73438C14.1211 5.21977 14.5146 5.61328 15 5.61328C15.4854 5.61328 15.8789 5.21977 15.8789 4.73438V1.16016C15.8789 0.674766 15.4854 0.28125 15 0.28125Z" fill="#F3F1F3"/>
<path d="M13.1074 7.59092C10.2936 8.24723 8.02849 10.4788 7.33685 13.2762C6.64299 16.0827 7.43717 18.9434 9.46135 20.9284C10.1454 21.5993 10.605 22.8852 10.605 24.1282V25.886C10.605 27.3399 11.7879 28.5227 13.2418 28.5227H14.1207V29.4016C14.1207 29.887 14.5142 30.2805 14.9996 30.2805C15.485 30.2805 15.8785 29.887 15.8785 29.4016V28.5227H16.7574C18.2113 28.5227 19.3941 27.3399 19.3941 25.886V24.1282C19.3941 22.9002 19.8783 21.59 20.599 20.8677C22.0891 19.3744 22.9097 17.3901 22.9097 15.2805C22.9097 10.2361 18.2346 6.39508 13.1074 7.59092ZM17.6363 25.886C17.6363 26.3706 17.242 26.7649 16.7574 26.7649H13.2418C12.7571 26.7649 12.3628 26.3706 12.3628 25.886V25.0071H17.6363V25.886ZM19.3547 19.6261C18.4763 20.5063 17.8737 21.8417 17.693 23.2493H12.3062C12.1533 22.0329 11.6753 20.6375 10.6921 19.6734C9.11658 18.1283 8.50017 15.8945 9.04328 13.698C9.57789 11.5358 11.3298 9.81051 13.5067 9.3028C17.5247 8.36553 21.1519 11.3627 21.1519 15.2805C21.1519 16.9213 20.5137 18.4646 19.3547 19.6261Z" fill="#F3F1F3"/>
</g>
<defs>
<clipPath id="clip0_876_129972">
<rect width="30" height="30" fill="white" transform="translate(0 0.28125)"/>
</clipPath>
</defs>
</svg>
