<svg width="24" height="24" viewBox="0 0 24 24" fill="none" xmlns="http://www.w3.org/2000/svg">
    <g clip-path="url(#clip0_3867_42633)">
        <path
            d="M3.62657 24H20.3732C22.1288 24 23.5555 22.5733 23.5555 20.8178V4.95998C23.5555 3.20442 22.1288 1.77774 20.3732 1.77774H19.111V0.888872C19.111 0.399978 18.711 0 18.2221 0C17.7332 0 17.3332 0.399978 17.3332 0.888872V1.77774H6.66659V0.888872C6.66659 0.399978 6.26654 0 5.77765 0C5.28875 0 4.88877 0.399978 4.88877 0.888872V1.77774H3.62657C1.87101 1.77774 0.444336 3.20442 0.444336 4.95998V20.8178C0.444336 22.5733 1.87101 24 3.62657 24ZM2.22216 4.95998C2.22216 4.18667 2.85326 3.55556 3.62657 3.55556H4.88877V4.44444C4.88877 4.93333 5.28875 5.33331 5.77765 5.33331C6.26654 5.33331 6.66652 4.93333 6.66652 4.44444V3.55556H17.3332V4.44444C17.3332 4.93333 17.7332 5.33331 18.2221 5.33331C18.711 5.33331 19.111 4.93333 19.111 4.44444V3.55556H20.3732C21.1465 3.55556 21.7776 4.18667 21.7776 4.95998V7.55556H2.22216V4.95998ZM2.22216 9.33331H21.7777V20.8178C21.7777 21.5911 21.1466 22.2222 20.3733 22.2222H3.62657C2.85326 22.2222 2.22216 21.5911 2.22216 20.8178V9.33331Z"
            fill="#2FA926" />
        <path
            d="M11.2967 11.3073C10.811 11.951 11.0668 12.494 11.071 13.4905L11.2805 16.6542C11.2981 16.9676 11.3643 17.2762 11.4767 17.5688C11.524 17.6604 11.5956 17.737 11.6834 17.7901C11.7712 17.8432 11.8718 17.8707 11.9742 17.8697C12.0766 17.8687 12.1767 17.8391 12.2634 17.7843C12.3501 17.7294 12.4202 17.6514 12.4657 17.5589C12.5833 17.2759 12.6497 16.9739 12.6618 16.6673L12.943 13.411C13.0527 12.7363 13.0036 12.0451 12.7996 11.3931C12.5848 10.8791 11.6356 10.8889 11.2967 11.3073Z"
            fill="#2FA926" />
        <path
            d="M11.6194 19.1025C11.738 19.0522 11.8653 19.0259 11.994 19.0253C12.1225 19.0244 12.2499 19.0491 12.369 19.0979C12.488 19.1467 12.5964 19.2187 12.6879 19.3097C12.7794 19.4008 12.8522 19.5091 12.9022 19.6286C12.9522 19.748 12.9784 19.8762 12.9792 20.0059C12.9801 20.1355 12.9557 20.2641 12.9073 20.3842C12.859 20.5044 12.7876 20.6137 12.6974 20.706C12.6071 20.7983 12.4998 20.8718 12.3814 20.9222C12.263 20.9727 12.1359 20.9991 12.0074 21C11.8787 21.0011 11.7511 20.9767 11.6318 20.928C11.5125 20.8793 11.4039 20.8074 11.3122 20.7163C11.2205 20.6252 11.1475 20.5168 11.0973 20.3972C11.0472 20.2776 11.021 20.1493 11.0201 20.0194C11.0192 19.8896 11.0437 19.7609 11.0922 19.6406C11.1407 19.5203 11.2122 19.4109 11.3027 19.3185C11.3932 19.2262 11.5008 19.1528 11.6194 19.1025Z"
            fill="#2FA926" />
    </g>
    <defs>
        <clipPath id="clip0_3867_42633">
            <rect width="24" height="24" fill="white" />
        </clipPath>
    </defs>
</svg>
