<svg width="24" height="24" viewBox="0 0 24 24" fill="none" xmlns="http://www.w3.org/2000/svg">
    <g clip-path="url(#clip0_3867_42634)">
        <path
            d="M20.3408 3.95892C18.1011 2.61511 15.1389 1.875 12 1.875C8.86106 1.875 5.89889 2.61511 3.6592 3.95892C1.29952 5.37469 0 7.29816 0 9.375V14.625C0 16.7018 1.29952 18.6253 3.6592 20.0411C5.89889 21.3849 8.86106 22.125 12 22.125C15.1389 22.125 18.1011 21.3849 20.3408 20.0411C22.7005 18.6253 24 16.7018 24 14.625V9.375C24 7.29816 22.7005 5.37469 20.3408 3.95892ZM4.43091 5.24513C6.44091 4.03917 9.12895 3.375 12 3.375C14.871 3.375 17.5591 4.03917 19.5691 5.24513C21.4591 6.37917 22.5 7.84584 22.5 9.375C22.5 10.9042 21.4591 12.3708 19.5691 13.5049C17.5591 14.7108 14.871 15.375 12 15.375C9.12895 15.375 6.44091 14.7108 4.43091 13.5049C2.54091 12.3708 1.5 10.9042 1.5 9.375C1.5 7.84584 2.54091 6.37917 4.43091 5.24513ZM18 15.8861V19.5321C17.0785 19.9061 16.068 20.189 15 20.3731V16.6424C16.0529 16.4759 17.061 16.2219 18 15.8861ZM9 16.6424V20.3731C7.932 20.1889 6.92156 19.9061 6 19.5321V15.886C6.93895 16.2219 7.94709 16.4759 9 16.6424ZM1.5 14.625V13.0422C2.06888 13.6819 2.79216 14.2709 3.6592 14.7911C3.9292 14.9531 4.20998 15.1061 4.50005 15.2503V18.7953C4.47708 18.7817 4.45373 18.7685 4.43095 18.7548C2.54091 17.6208 1.5 16.1542 1.5 14.625ZM10.5 20.5632V16.8177C10.9939 16.8555 11.4946 16.875 12 16.875C12.5054 16.875 13.0061 16.8555 13.5 16.8177V20.5632C13.0074 20.6039 12.5067 20.625 12 20.625C11.4933 20.625 10.9926 20.6039 10.5 20.5632ZM22.5 14.625C22.5 16.1542 21.4591 17.6208 19.5691 18.7549C19.5463 18.7686 19.523 18.7818 19.5 18.7953V15.2503C19.7901 15.1061 20.0708 14.9531 20.3408 14.7911C21.2078 14.2709 21.9311 13.6819 22.5 13.0422V14.625H22.5Z"
            fill="#2FA926" />
    </g>
    <defs>
        <clipPath id="clip0_3867_42634">
            <rect width="24" height="24" fill="white" />
        </clipPath>
    </defs>
</svg>
