<svg width="24" height="24" viewBox="0 0 24 24" fill="none" xmlns="http://www.w3.org/2000/svg">
<path d="M19.3958 22.0133H12C6.21 22.0133 1.5 17.5215 1.5 12.0008C1.5 6.48003 6.21 1.98828 12 1.98828C17.79 1.98828 22.5 6.48003 22.5 12.0008C22.4979 14.389 21.612 16.6919 20.013 18.4658L20.613 19.0658C20.8542 19.3071 21.0184 19.6145 21.0849 19.9491C21.1514 20.2837 21.1172 20.6305 20.9866 20.9457C20.8559 21.2609 20.6348 21.5302 20.3511 21.7197C20.0674 21.9092 19.7339 22.0103 19.3927 22.0103L19.3958 22.0133ZM12 3.48828C7.03725 3.48828 3 7.30728 3 12.0008C3 16.6943 7.03725 20.5133 12 20.5133H19.3958C19.4403 20.5134 19.4839 20.5003 19.5209 20.4756C19.558 20.4509 19.5869 20.4158 19.604 20.3747C19.6211 20.3336 19.6257 20.2883 19.617 20.2446C19.6084 20.2009 19.587 20.1608 19.5555 20.1293L18.4305 19.0043C18.3602 18.934 18.3045 18.8503 18.2668 18.7583C18.2291 18.6663 18.2101 18.5676 18.2109 18.4682C18.2116 18.3687 18.2322 18.2704 18.2713 18.179C18.3104 18.0875 18.3673 18.0048 18.4387 17.9355C19.2439 17.1702 19.886 16.2499 20.3261 15.23C20.7663 14.2101 20.9955 13.1116 21 12.0008C21 7.30728 16.9628 3.48828 12 3.48828Z" fill="#F3F1F3"/>
<path d="M13.125 16.5H10.875C10.6761 16.5 10.4853 16.421 10.3447 16.2803C10.204 16.1397 10.125 15.9489 10.125 15.75C10.125 15.5511 10.204 15.3603 10.3447 15.2197C10.4853 15.079 10.6761 15 10.875 15H13.125C13.3239 15 13.5147 15.079 13.6553 15.2197C13.796 15.3603 13.875 15.5511 13.875 15.75C13.875 15.9489 13.796 16.1397 13.6553 16.2803C13.5147 16.421 13.3239 16.5 13.125 16.5Z" fill="#F3F1F3"/>
<path d="M12 16.5C11.8011 16.5 11.6103 16.421 11.4696 16.2803C11.329 16.1397 11.25 15.9489 11.25 15.75V11.1495C11.107 11.0669 10.9953 10.9395 10.9321 10.787C10.8689 10.6345 10.8578 10.4654 10.9006 10.3059C10.9433 10.1464 11.0374 10.0055 11.1684 9.90499C11.2994 9.80449 11.4599 9.75001 11.625 9.75H12C12.1989 9.75 12.3896 9.82902 12.5303 9.96967C12.671 10.1103 12.75 10.3011 12.75 10.5V15.75C12.75 15.9489 12.671 16.1397 12.5303 16.2803C12.3896 16.421 12.1989 16.5 12 16.5Z" fill="#F3F1F3"/>
<path d="M12 8.625C12.6213 8.625 13.125 8.12132 13.125 7.5C13.125 6.87868 12.6213 6.375 12 6.375C11.3787 6.375 10.875 6.87868 10.875 7.5C10.875 8.12132 11.3787 8.625 12 8.625Z" fill="#F3F1F3"/>
</svg>
