<svg width="24" height="24" viewBox="0 0 24 24" fill="none" xmlns="http://www.w3.org/2000/svg">
<path d="M22.2922 10.4256C21.639 9.61063 20.6163 9.10441 19.6231 9.10441H16.9957C17.587 8.12902 18.032 7.14749 18.3032 6.21283C18.717 4.78656 18.7026 3.54326 18.2613 2.61731C17.7643 1.57439 16.7571 1 15.4253 1C15.1224 1 14.8495 1.18916 14.734 1.47903C13.6971 4.08257 10.9924 7.82458 8.44413 10.2897C8.18411 9.35466 7.35079 8.66848 6.36503 8.66848H3.16374C1.97067 8.66848 1 9.67328 1 10.9083V20.7602C1 21.9952 1.97067 23 3.16374 23H6.36503C7.09488 23 7.74102 22.6236 8.13312 22.0488C8.72627 22.6396 9.51262 23 10.3743 23H18.435C19.3261 23 20.1197 22.6072 20.7299 21.8641C21.233 21.2515 21.5903 20.4239 21.7631 19.4709L22.9512 12.9192C23.1106 12.0402 22.8766 11.1546 22.2922 10.4256ZM7.03323 20.7602C7.03323 21.1416 6.73348 21.452 6.36503 21.452H3.16374C2.79529 21.452 2.49549 21.1416 2.49549 20.7602V10.9083C2.49549 10.5269 2.79529 10.2166 3.16374 10.2166H6.36503C6.73348 10.2166 7.03323 10.5269 7.03323 10.9083V20.7602Z" fill="#F3F1F3"/>
</svg>
