<svg width="20" height="20" viewBox="0 0 20 20" fill="none" xmlns="http://www.w3.org/2000/svg">
<g clip-path="url(#clip0_1299_9886)">
<path d="M18.5765 8.68861C18.0322 8.00951 17.1799 7.58766 16.3522 7.58766H14.1628C14.6555 6.77483 15.0263 5.95689 15.2523 5.17801C15.5972 3.98945 15.5851 2.95337 15.2174 2.18174C14.8032 1.31264 13.9639 0.833984 12.8541 0.833984C12.6017 0.833984 12.3742 0.991615 12.278 1.23318C11.4139 3.40279 9.16001 6.52113 7.03645 8.57537C6.81976 7.7962 6.12533 7.22438 5.30386 7.22438H2.63613C1.6419 7.22438 0.833008 8.06172 0.833008 9.09087V17.3008C0.833008 18.33 1.6419 19.1673 2.63613 19.1673H5.30386C5.91207 19.1673 6.45052 18.8536 6.77727 18.3747C7.27156 18.867 7.92686 19.1673 8.64489 19.1673H15.3622C16.1048 19.1673 16.7661 18.84 17.2746 18.2208C17.6938 17.7103 17.9916 17.0206 18.1356 16.2264L19.1257 10.7667C19.2585 10.0342 19.0635 9.29615 18.5765 8.68861ZM5.8607 17.3008C5.8607 17.6187 5.61091 17.8773 5.30386 17.8773H2.63613C2.32908 17.8773 2.07925 17.6187 2.07925 17.3008V9.09091C2.07925 8.77307 2.32908 8.51449 2.63613 8.51449H5.30386C5.61091 8.51449 5.8607 8.77307 5.8607 9.09091V17.3008ZM17.9008 10.5287L16.9107 15.9884C16.7452 16.9016 16.2514 17.8773 15.3621 17.8773H8.64485C7.79686 17.8773 7.10698 17.0833 7.10698 16.1074V10.2319C9.4558 8.21342 12.0863 4.7468 13.2475 2.15578C13.8671 2.26431 14.0373 2.62137 14.0998 2.75248C14.5043 3.60114 14.1686 5.55523 12.4759 7.84015C12.3315 8.03499 12.3066 8.29784 12.4116 8.51804C12.5165 8.73824 12.7331 8.87769 12.9704 8.87769H16.3523C16.8118 8.87769 17.3085 9.12679 17.6174 9.51232C17.7914 9.72945 17.9819 10.082 17.9008 10.5287Z" fill="#F3F1F3"/>
</g>
<defs>
<clipPath id="clip0_1299_9886">
<rect width="20" height="20" fill="white"/>
</clipPath>
</defs>
</svg>
