<svg width="20" height="21" viewBox="0 0 20 21" fill="none" xmlns="http://www.w3.org/2000/svg">
<path d="M16.681 5.37566C15.4498 2.79441 12.9123 1.16316 10.056 1.12566C7.19355 1.08816 4.65605 2.66316 3.38105 5.25066C2.05605 7.9319 2.36855 11.0382 4.20605 13.3694L8.9498 19.3944C9.19355 19.7007 9.55605 19.8757 9.94355 19.8757C10.331 19.8757 10.6935 19.7007 10.9373 19.3944L15.806 13.2069C17.5748 10.9569 17.906 7.96316 16.681 5.38191V5.37566ZM14.831 12.4319L9.9373 18.6194L5.19355 12.5944C3.6623 10.6507 3.3998 8.0444 4.50605 5.8069C5.56855 3.6569 7.5998 2.38191 9.9498 2.38191H10.0435C12.456 2.41941 14.5185 3.73816 15.556 5.9194C16.5935 8.10066 16.3248 10.5319 14.831 12.4319Z" fill="#CCCCCC"/>
<path d="M9.94375 4.97461C8.0625 4.97461 6.53125 6.50586 6.53125 8.38711C6.53125 10.2684 8.0625 11.7996 9.94375 11.7996C11.825 11.7996 13.3563 10.2684 13.3563 8.38711C13.3563 6.50586 11.825 4.97461 9.94375 4.97461ZM9.94375 10.5434C8.75 10.5434 7.78125 9.57461 7.78125 8.38086C7.78125 7.18711 8.75 6.21836 9.94375 6.21836C11.1375 6.21836 12.1063 7.18711 12.1063 8.38086C12.1063 9.57461 11.1375 10.5434 9.94375 10.5434Z" fill="#CCCCCC"/>
</svg>
