<svg width="34" height="34" viewBox="0 0 34 34" fill="none" xmlns="http://www.w3.org/2000/svg">
<rect width="34" height="34" rx="3.57895" fill="#F3F1F3"/>
<g clip-path="url(#clip0_876_130304)">
<path d="M28.7321 5.02539L18.9961 12.5119L20.7969 8.09484L28.7321 5.02539Z" fill="#E2761B" stroke="#E2761B" stroke-width="0.894737" stroke-linecap="round" stroke-linejoin="round"/>
<path d="M6.25781 5.02539L15.9156 12.5828L14.2029 8.09484L6.25781 5.02539Z" fill="#E4761B" stroke="#E4761B" stroke-width="0.894737" stroke-linecap="round" stroke-linejoin="round"/>
<path d="M25.2296 22.3789L22.6367 26.4922L28.1848 28.0723L29.7799 22.4701L25.2296 22.3789Z" fill="#E4761B" stroke="#E4761B" stroke-width="0.894737" stroke-linecap="round" stroke-linejoin="round"/>
<path d="M5.23047 22.4701L6.81564 28.0723L12.3638 26.4922L9.77087 22.3789L5.23047 22.4701Z" fill="#E4761B" stroke="#E4761B" stroke-width="0.894737" stroke-linecap="round" stroke-linejoin="round"/>
<path d="M12.0502 15.4308L10.5039 17.8524L16.0126 18.1058L15.8172 11.9766L12.0502 15.4308Z" fill="#E4761B" stroke="#E4761B" stroke-width="0.894737" stroke-linecap="round" stroke-linejoin="round"/>
<path d="M22.9393 15.4294L19.1236 11.9043L18.9961 18.1044L24.4955 17.851L22.9393 15.4294Z" fill="#E4761B" stroke="#E4761B" stroke-width="0.894737" stroke-linecap="round" stroke-linejoin="round"/>
<path d="M12.3633 26.4935L15.6705 24.8217L12.8132 22.5117L12.3633 26.4935Z" fill="#E4761B" stroke="#E4761B" stroke-width="0.894737" stroke-linecap="round" stroke-linejoin="round"/>
<path d="M19.3203 24.8217L22.6374 26.4935L22.1776 22.5117L19.3203 24.8217Z" fill="#E4761B" stroke="#E4761B" stroke-width="0.894737" stroke-linecap="round" stroke-linejoin="round"/>
<path d="M22.6374 26.4921L19.3203 24.8203L19.5847 27.0594L19.5551 28.0014L22.6374 26.4921Z" fill="#D7C1B3" stroke="#D7C1B3" stroke-width="0.894737" stroke-linecap="round" stroke-linejoin="round"/>
<path d="M12.3633 26.4921L15.4455 28.0014L15.4258 27.0594L15.6705 24.8203L12.3633 26.4921Z" fill="#D7C1B3" stroke="#D7C1B3" stroke-width="0.894737" stroke-linecap="round" stroke-linejoin="round"/>
<path d="M15.4937 21.0326L12.7344 20.1916L14.6814 19.2695L15.4937 21.0326Z" fill="#233447" stroke="#233447" stroke-width="0.894737" stroke-linecap="round" stroke-linejoin="round"/>
<path d="M19.4961 21.0326L20.3084 19.2695L22.2652 20.1916L19.4961 21.0326Z" fill="#233447" stroke="#233447" stroke-width="0.894737" stroke-linecap="round" stroke-linejoin="round"/>
<path d="M12.3624 26.4922L12.8321 22.3789L9.76953 22.4701L12.3624 26.4922Z" fill="#CD6116" stroke="#CD6116" stroke-width="0.894737" stroke-linecap="round" stroke-linejoin="round"/>
<path d="M22.168 22.3789L22.6376 26.4922L25.2305 22.4701L22.168 22.3789Z" fill="#CD6116" stroke="#CD6116" stroke-width="0.894737" stroke-linecap="round" stroke-linejoin="round"/>
<path d="M24.4955 17.8516L18.9961 18.1049L19.5051 21.0326L20.3174 19.2696L22.2743 20.1916L24.4955 17.8516Z" fill="#CD6116" stroke="#CD6116" stroke-width="0.894737" stroke-linecap="round" stroke-linejoin="round"/>
<path d="M12.735 20.1916L14.6918 19.2696L15.4943 21.0326L16.0126 18.1049L10.5039 17.8516L12.735 20.1916Z" fill="#CD6116" stroke="#CD6116" stroke-width="0.894737" stroke-linecap="round" stroke-linejoin="round"/>
<path d="M10.5039 17.8516L12.8132 22.5113L12.735 20.1916L10.5039 17.8516Z" fill="#E4751F" stroke="#E4751F" stroke-width="0.894737" stroke-linecap="round" stroke-linejoin="round"/>
<path d="M22.2737 20.1916L22.1758 22.5113L24.495 17.8516L22.2737 20.1916Z" fill="#E4751F" stroke="#E4751F" stroke-width="0.894737" stroke-linecap="round" stroke-linejoin="round"/>
<path d="M16.0125 18.1055L15.4941 21.0332L16.14 24.4875L16.2867 19.9389L16.0125 18.1055Z" fill="#E4751F" stroke="#E4751F" stroke-width="0.894737" stroke-linecap="round" stroke-linejoin="round"/>
<path d="M18.9963 18.1055L18.7324 19.9287L18.8496 24.4875L19.5053 21.0332L18.9963 18.1055Z" fill="#E4751F" stroke="#E4751F" stroke-width="0.894737" stroke-linecap="round" stroke-linejoin="round"/>
<path d="M19.5053 21.0324L18.8496 24.4867L19.3193 24.8211L22.1765 22.5111L22.2745 20.1914L19.5053 21.0324Z" fill="#F6851B" stroke="#F6851B" stroke-width="0.894737" stroke-linecap="round" stroke-linejoin="round"/>
<path d="M12.7344 20.1914L12.8126 22.5111L15.6699 24.8211L16.1395 24.4867L15.4937 21.0324L12.7344 20.1914Z" fill="#F6851B" stroke="#F6851B" stroke-width="0.894737" stroke-linecap="round" stroke-linejoin="round"/>
<path d="M19.5547 28.0014L19.5842 27.0595L19.3395 26.8362H15.6508L15.4258 27.0595L15.4455 28.0014L12.3633 26.4922L13.4394 27.4035L15.6213 28.9739H19.3691L21.5607 27.4035L22.6369 26.4922L19.5547 28.0014Z" fill="#C0AD9E" stroke="#C0AD9E" stroke-width="0.894737" stroke-linecap="round" stroke-linejoin="round"/>
<path d="M19.3198 24.8207L18.8502 24.4863H16.1401L15.6704 24.8207L15.4258 27.0598L15.6508 26.8366H19.3395L19.5842 27.0598L19.3198 24.8207Z" fill="#161616" stroke="#161616" stroke-width="0.894737" stroke-linecap="round" stroke-linejoin="round"/>
<path d="M29.1445 12.9982L29.9759 8.865L28.7334 5.02539L19.3203 12.2586L22.9406 15.4295L28.058 16.9795L29.1932 15.612L28.7039 15.2475L29.4866 14.508L28.8801 14.0217L29.6628 13.4034L29.1445 12.9982Z" fill="#763D16" stroke="#763D16" stroke-width="0.894737" stroke-linecap="round" stroke-linejoin="round"/>
<path d="M5.02539 8.865L5.85687 12.9982L5.32864 13.4034L6.11138 14.0217L5.51473 14.508L6.29747 15.2475L5.80813 15.612L6.93351 16.9795L12.0509 15.4295L15.6712 12.2586L6.25809 5.02539L5.02539 8.865Z" fill="#763D16" stroke="#763D16" stroke-width="0.894737" stroke-linecap="round" stroke-linejoin="round"/>
<path d="M28.0581 16.9797L22.9408 15.4297L24.4969 17.8513L22.1777 22.511L25.2304 22.4708H29.7807L28.0581 16.9797Z" fill="#F6851B" stroke="#F6851B" stroke-width="0.894737" stroke-linecap="round" stroke-linejoin="round"/>
<path d="M12.0507 15.4297L6.9333 16.9797L5.23047 22.4708H9.77087L12.8137 22.511L10.5044 17.8513L12.0507 15.4297Z" fill="#F6851B" stroke="#F6851B" stroke-width="0.894737" stroke-linecap="round" stroke-linejoin="round"/>
<path d="M18.9975 18.1053L19.3205 12.2595L20.8082 8.0957H14.2031L15.6711 12.2595L16.0133 18.1053L16.1309 19.9489L16.1408 24.4873H18.8508L18.8705 19.9489L18.9975 18.1053Z" fill="#F6851B" stroke="#F6851B" stroke-width="0.894737" stroke-linecap="round" stroke-linejoin="round"/>
</g>
<defs>
<clipPath id="clip0_876_130304">
<rect width="25" height="24" fill="white" transform="translate(5 5)"/>
</clipPath>
</defs>
</svg>
