<svg width="72" height="72" viewBox="0 0 72 72" fill="none" xmlns="http://www.w3.org/2000/svg">
    <g clip-path="url(#clip0_876_156428)">
        <foreignObject x="-2.80029" y="-3.04004" width="77.6001" height="77.6001">
            <div xmlns="http://www.w3.org/1999/xhtml"
                style="backdrop-filter:blur(5px);clip-path:url(#bgblur_1_876_156428_clip_path);height:100%;width:100%"></div>
        </foreignObject>
        <g filter="url(#filter0_d_876_156428)" data-figma-bg-blur-radius="10">
            <path
                d="M35.9997 64.56C51.9055 64.56 64.7997 51.6658 64.7997 35.76C64.7997 19.8542 51.9055 6.95996 35.9997 6.95996C20.0939 6.95996 7.19971 19.8542 7.19971 35.76C7.19971 51.6658 20.0939 64.56 35.9997 64.56Z"
                fill="#2FA926" fill-opacity="0.22" shape-rendering="crispEdges" />
        </g>
        <g clip-path="url(#clip2_876_156428)">
            <path
                d="M24.545 29.161C24.0685 28.8858 23.4594 29.0492 23.1845 29.5255C22.9092 30.002 23.0727 30.6111 23.5489 30.886C24.0252 31.1613 24.6345 30.9978 24.9095 30.5216C25.1847 30.0451 25.0213 29.436 24.545 29.161Z"
                fill="#2FA926" />
            <path
                d="M49.9453 27.0352H48.9492V26.0391C48.9492 25.4886 48.5038 25.043 47.9531 25.043C47.4027 25.043 46.957 25.4886 46.957 26.0391V27.0352H45.9609C45.4105 27.0352 44.9648 27.4808 44.9648 28.0312C44.9648 28.582 45.4105 29.0273 45.9609 29.0273H46.957V30.0234C46.957 30.5739 47.4027 31.0195 47.9531 31.0195C48.5038 31.0195 48.9492 30.5739 48.9492 30.0234V29.0273H49.9453C50.4958 29.0273 50.9414 28.582 50.9414 28.0312C50.9414 27.4808 50.4958 27.0352 49.9453 27.0352Z"
                fill="#2FA926" />
            <path
                d="M23.0508 23.9802C23.0508 24.5309 23.4962 24.9763 24.0469 24.9763C24.5973 24.9763 25.043 24.5309 25.043 23.9802V22.9841H26.0391C26.5895 22.9841 27.0352 22.5387 27.0352 21.988C27.0352 21.4376 26.5895 20.9919 26.0391 20.9919H25.043V19.9958C25.043 19.4454 24.5973 18.9998 24.0469 18.9998C23.4962 18.9998 23.0508 19.4454 23.0508 19.9958V20.9919H22.0547C21.5042 20.9919 21.0586 21.4376 21.0586 21.988C21.0586 22.5387 21.5042 22.9841 22.0547 22.9841H23.0508V23.9802Z"
                fill="#2FA926" />
            <path
                d="M29.3427 20.8619C30.2908 22.7587 30.8173 24.8525 30.9499 26.9687H41.0504C41.1827 24.8528 41.7092 22.7587 42.6574 20.8619L42.8675 20.4417C43.0592 20.0586 42.9842 19.5955 42.6807 19.2921C42.3782 18.9886 41.9152 18.9136 41.531 19.1053L38.1887 20.7763L36.7041 19.2921C36.315 18.903 35.6847 18.903 35.2956 19.2921L33.8113 20.7763L30.469 19.105C30.0838 18.9136 29.6238 18.9875 29.3193 19.2921C29.0158 19.5953 28.9408 20.0583 29.1325 20.4417L29.3427 20.8619Z"
                fill="#F3F1F3" />
            <path
                d="M42.0985 29.0273H29.901L26.0118 33.7344C24.1024 36.0467 23.0508 39.0399 23.0508 42.043C23.0508 48.6991 28.1334 52.9997 35.9997 52.9997C43.8663 52.9997 48.9489 48.6991 48.9489 42.043C48.9489 39.0399 47.8973 36.1131 45.9869 33.8008L42.0985 29.0273Z"
                fill="#F3F1F3" />
        </g>
        <path fill-rule="evenodd" clip-rule="evenodd"
            d="M10.1432 16.8657C10.0648 16.5325 9.94822 16.2048 9.78925 15.884C9.23158 14.7582 7.7506 14.2841 6.31468 14.4135C4.87932 14.5427 3.51861 15.2731 3.18863 16.4328C2.99983 17.0959 3.06872 17.6161 3.29474 18.0175C3.51969 18.4168 3.90714 18.7033 4.38759 18.887C5.72699 19.3985 7.80885 19.1026 8.67141 18.5738C9.07028 18.3289 9.45245 18.0557 9.81785 17.7591C9.88097 19.1575 9.28798 20.6269 8.37416 22.0349C6.38821 25.0952 2.86788 27.8636 0.876481 29.0358C0.769487 29.0988 0.733812 29.2408 0.796326 29.3533C0.85884 29.4658 0.99622 29.5061 1.10321 29.4431C3.13403 28.2477 6.72211 25.422 8.74729 22.301C9.79359 20.689 10.4188 18.9967 10.2368 17.4034C12.887 15.0464 14.6925 11.4351 16.2452 8.38855C16.3031 8.27603 16.2606 8.13373 16.1508 8.07162C16.0411 8.01008 15.9055 8.05098 15.8477 8.16409C14.3583 11.086 12.6455 14.5487 10.1432 16.8657ZM9.75775 17.2079C9.69113 16.8286 9.57137 16.455 9.39073 16.0913C8.90824 15.1169 7.60444 14.7661 6.36143 14.8782C5.59957 14.9471 4.85516 15.1941 4.31951 15.6053C3.98265 15.8636 3.72943 16.1862 3.61952 16.5731C3.475 17.0808 3.50789 17.4802 3.68111 17.787C3.85485 18.096 4.16313 18.307 4.53535 18.4488C5.756 18.9152 7.6529 18.6518 8.438 18.1704C8.90114 17.8865 9.33996 17.5633 9.75775 17.2079Z"
            fill="#2FA926" />
        <circle cx="68.4" cy="44.1597" r="1.44" fill="#F3F1F3" />
        <path fill-rule="evenodd" clip-rule="evenodd"
            d="M6.06538 42.6411C6.32237 42.5447 6.5928 42.4167 6.80134 42.2312C7.04902 42.011 7.14975 41.7273 7.21739 41.4287C7.30423 41.0451 7.33893 40.6365 7.44424 40.2523C7.48323 40.1096 7.55826 40.0556 7.59046 40.0317C7.67184 39.9712 7.7541 39.9551 7.83149 39.9612C7.9232 39.9681 8.04919 40.0047 8.13205 40.1665C8.14386 40.1896 8.15922 40.2249 8.16956 40.2733C8.17709 40.3087 8.18196 40.4195 8.18994 40.4652C8.20988 40.5777 8.22657 40.6903 8.24222 40.8034C8.29436 41.18 8.32434 41.4999 8.48902 41.8459C8.71248 42.3156 8.93638 42.603 9.24004 42.7303C9.53365 42.8534 9.88471 42.8303 10.3333 42.7337C10.3759 42.7229 10.4182 42.7135 10.46 42.7059C10.6577 42.6695 10.8468 42.8062 10.8856 43.0135C10.9245 43.2207 10.7988 43.4226 10.6028 43.4682C10.5619 43.4776 10.5216 43.4866 10.4817 43.4949C9.87555 43.6528 9.17386 44.2164 8.76608 44.7099C8.6404 44.8621 8.45638 45.2875 8.26866 45.5589C8.13012 45.7591 7.97445 45.891 7.84375 45.9376C7.75617 45.969 7.68232 45.9642 7.62133 45.9484C7.53271 45.9254 7.45916 45.8749 7.40274 45.7945C7.37202 45.7505 7.34351 45.6916 7.32992 45.6164C7.32343 45.5802 7.32269 45.4881 7.32284 45.4465C7.28459 45.308 7.23777 45.1728 7.20365 45.033C7.12227 44.6996 6.96261 44.4886 6.77298 44.2097C6.5956 43.9487 6.40508 43.7848 6.1258 43.6539C6.08946 43.6446 5.79629 43.569 5.69276 43.5257C5.54152 43.4621 5.46945 43.3556 5.44331 43.2983C5.39885 43.201 5.39428 43.1159 5.40314 43.0451C5.41628 42.9405 5.46088 42.8509 5.54005 42.7787C5.58908 42.7337 5.66234 42.6901 5.76041 42.6688C5.83617 42.6521 6.03717 42.6425 6.06538 42.6411ZM7.78526 42.0977C7.79885 42.1296 7.81332 42.1616 7.82868 42.1939C8.15597 42.8819 8.52195 43.2659 8.9668 43.4523L8.98172 43.4584C8.68412 43.6909 8.41472 43.9508 8.20884 44.1999C8.12406 44.3025 8.01182 44.5156 7.89057 44.7341C7.78039 44.3572 7.6002 44.0908 7.37364 43.7574C7.20055 43.503 7.01918 43.3115 6.79632 43.1554C6.96926 43.062 7.13423 42.9526 7.27794 42.8248C7.5172 42.612 7.67538 42.3655 7.78526 42.0977Z"
            fill="#2FA926" />
    </g>
    <defs>
        <filter id="filter0_d_876_156428" x="-2.80029" y="-3.04004" width="77.6001" height="77.6001"
            filterUnits="userSpaceOnUse" color-interpolation-filters="sRGB">
            <feFlood flood-opacity="0" result="BackgroundImageFix" />
            <feColorMatrix in="SourceAlpha" type="matrix" values="0 0 0 0 0 0 0 0 0 0 0 0 0 0 0 0 0 0 127 0"
                result="hardAlpha" />
            <feOffset dy="2" />
            <feGaussianBlur stdDeviation="0.5" />
            <feComposite in2="hardAlpha" operator="out" />
            <feColorMatrix type="matrix" values="0 0 0 0 1 0 0 0 0 1 0 0 0 0 1 0 0 0 0.02 0" />
            <feBlend mode="normal" in2="BackgroundImageFix" result="effect1_dropShadow_876_156428" />
            <feBlend mode="normal" in="SourceGraphic" in2="effect1_dropShadow_876_156428" result="shape" />
        </filter>
        <clipPath id="bgblur_1_876_156428_clip_path" transform="translate(2.80029 3.04004)">
            <path
                d="M35.9997 64.56C51.9055 64.56 64.7997 51.6658 64.7997 35.76C64.7997 19.8542 51.9055 6.95996 35.9997 6.95996C20.0939 6.95996 7.19971 19.8542 7.19971 35.76C7.19971 51.6658 20.0939 64.56 35.9997 64.56Z" />
        </clipPath>
        <clipPath id="clip0_876_156428">
            <rect width="72" height="72" fill="white" />
        </clipPath>
        <clipPath id="clip2_876_156428">
            <rect width="34" height="34" fill="white" transform="translate(19 19)" />
        </clipPath>
    </defs>
</svg>
