<svg width="20" height="20" viewBox="0 0 20 20" fill="none" xmlns="http://www.w3.org/2000/svg">
    <path fill-rule="evenodd" clip-rule="evenodd" d="M5.39028 2.71823C6.62318 1.61177 8.28232 1 10 1C11.7177 1 13.3768 1.61177 14.6097 2.71823C15.8448 3.82665 16.552 5.3438 16.552 6.94C16.552 9.19819 17.1406 10.7424 17.7929 11.7686L17.8031 11.7847C18.1554 12.339 18.4322 12.7745 18.6184 13.0893C18.7116 13.2469 18.795 13.3959 18.8563 13.5259C18.8868 13.5906 18.9208 13.6693 18.9474 13.754C18.9683 13.8211 19.0134 13.9774 18.9961 14.1676C18.9855 14.2844 18.9601 14.4971 18.8325 14.716C18.7048 14.9348 18.5293 15.0665 18.4313 15.1362C18.2873 15.2384 18.1437 15.2843 18.067 15.3057C17.9792 15.3301 17.8943 15.3446 17.8243 15.3541C17.6846 15.373 17.5242 15.3825 17.3597 15.3884C17.0325 15.4 16.5771 15.4 16.0069 15.4H3.99303C3.42292 15.4 2.96753 15.4 2.64023 15.3884C2.47579 15.3825 2.31536 15.373 2.17576 15.3541C2.10571 15.3446 2.02087 15.3301 1.93307 15.3057C1.85628 15.2843 1.71269 15.2384 1.56879 15.1362C1.47069 15.0665 1.29517 14.9348 1.16753 14.716C1.03989 14.4971 1.01449 14.2844 1.00387 14.1676C0.986573 13.9774 1.03163 13.8211 1.05268 13.754C1.07924 13.6693 1.11318 13.5906 1.14369 13.5259C1.205 13.3959 1.28846 13.2469 1.38161 13.0893C1.56775 12.7745 1.84451 12.3391 2.19673 11.785L2.20712 11.7686C2.85937 10.7424 3.44807 9.19819 3.44807 6.94C3.44807 5.3438 4.15521 3.82665 5.39028 2.71823ZM10 2.8C8.7388 2.8 7.54107 3.25022 6.66757 4.03413C5.79627 4.81608 5.32005 5.86283 5.32005 6.94C5.32005 9.51697 4.64292 11.388 3.80443 12.7073C3.57748 13.0643 3.39066 13.3583 3.24105 13.5986C3.45801 13.6 3.71419 13.6 4.01532 13.6H15.9847C16.2858 13.6 16.542 13.6 16.7589 13.5986C16.6093 13.3583 16.4225 13.0643 16.1955 12.7073C15.3571 11.388 14.68 9.51697 14.68 6.94C14.68 5.86283 14.2038 4.81608 13.3324 4.03413C12.4589 3.25022 11.2612 2.8 10 2.8ZM6.25604 18.1C6.25604 17.6029 6.6751 17.2 7.19203 17.2H12.808C13.3249 17.2 13.744 17.6029 13.744 18.1C13.744 18.5971 13.3249 19 12.808 19H7.19203C6.6751 19 6.25604 18.5971 6.25604 18.1Z" fill="white"/>
    <circle cx="15.5" cy="4.5" r="3.5" fill="#EF5151"/>
</svg>
