<svg width="18" height="18" viewBox="0 0 18 18" fill="none" xmlns="http://www.w3.org/2000/svg">
<path fill-rule="evenodd" clip-rule="evenodd" d="M4.39028 1.71823C5.62318 0.611775 7.28232 0 9.00004 0C10.7177 0 12.3768 0.611775 13.6097 1.71823C14.8448 2.82665 15.552 4.3438 15.552 5.94C15.552 8.19819 16.1406 9.74241 16.7929 10.7686L16.8031 10.7847C17.1554 11.339 17.4322 11.7745 17.6184 12.0893C17.7116 12.2469 17.795 12.3959 17.8563 12.5259C17.8868 12.5906 17.9208 12.6693 17.9474 12.754C17.9683 12.8211 18.0134 12.9774 17.9961 13.1676C17.9855 13.2844 17.9601 13.4971 17.8325 13.716C17.7048 13.9348 17.5293 14.0665 17.4313 14.1362C17.2873 14.2384 17.1437 14.2843 17.067 14.3057C16.9792 14.3301 16.8943 14.3446 16.8243 14.3541C16.6846 14.373 16.5242 14.3825 16.3597 14.3884C16.0325 14.4 15.5771 14.4 15.0069 14.4H2.99303C2.42292 14.4 1.96753 14.4 1.64023 14.3884C1.47579 14.3825 1.31536 14.373 1.17576 14.3541C1.10571 14.3446 1.02087 14.3301 0.933074 14.3057C0.856276 14.2843 0.712686 14.2384 0.568787 14.1362C0.470686 14.0665 0.295169 13.9348 0.167528 13.716C0.0398874 13.4971 0.014494 13.2844 0.0038705 13.1676C-0.0134266 12.9774 0.031632 12.8211 0.0526824 12.754C0.0792364 12.6693 0.113185 12.5906 0.143689 12.5259C0.204996 12.3959 0.288458 12.2469 0.381608 12.0893C0.567748 11.7745 0.844511 11.3391 1.19673 10.785L1.20712 10.7686C1.85937 9.74241 2.44807 8.19819 2.44807 5.94C2.44807 4.3438 3.15521 2.82665 4.39028 1.71823ZM9.00004 1.8C7.7388 1.8 6.54107 2.25022 5.66757 3.03413C4.79627 3.81608 4.32005 4.86283 4.32005 5.94C4.32005 8.51697 3.64292 10.388 2.80443 11.7073C2.57748 12.0643 2.39066 12.3583 2.24105 12.5986C2.45801 12.6 2.71419 12.6 3.01532 12.6H14.9847C15.2858 12.6 15.542 12.6 15.7589 12.5986C15.6093 12.3583 15.4225 12.0643 15.1955 11.7073C14.3571 10.388 13.68 8.51697 13.68 5.94C13.68 4.86283 13.2038 3.81608 12.3324 3.03413C11.4589 2.25022 10.2612 1.8 9.00004 1.8ZM5.25604 17.1C5.25604 16.6029 5.6751 16.2 6.19203 16.2H11.808C12.3249 16.2 12.744 16.6029 12.744 17.1C12.744 17.5971 12.3249 18 11.808 18H6.19203C5.6751 18 5.25604 17.5971 5.25604 17.1Z" fill="#F3F1F3"/>
</svg>
