<svg width="240" height="240" viewBox="0 0 240 240" fill="none" xmlns="http://www.w3.org/2000/svg">
    <path
        d="M131.625 219.533C134.394 219.616 136.706 217.439 136.788 214.67C136.871 211.901 134.694 209.59 131.925 209.507C129.156 209.424 126.845 211.602 126.762 214.371C126.679 217.139 128.857 219.451 131.625 219.533Z"
        fill="#EEA1A1" />
    <path
        d="M176.605 201.524C178.583 201.584 180.234 200.028 180.293 198.051C180.352 196.073 178.796 194.422 176.819 194.363C174.841 194.304 173.19 195.859 173.131 197.837C173.072 199.814 174.627 201.465 176.605 201.524Z"
        fill="#EEA1A1" />
    <path
        d="M65.4712 202.505C68.6354 202.6 71.2772 200.111 71.3717 196.947C71.4662 193.783 68.9777 191.141 65.8135 191.046C62.6493 190.952 60.0076 193.44 59.9131 196.605C59.8186 199.769 62.307 202.41 65.4712 202.505Z"
        fill="#EEA1A1" />
    <path
        d="M20.4124 163.168C23.3788 163.256 25.8554 160.923 25.9441 157.957C26.0327 154.99 23.6997 152.514 20.7333 152.425C17.7668 152.336 15.2902 154.669 15.2016 157.636C15.113 160.602 17.4459 163.079 20.4124 163.168Z"
        fill="#EEA1A1" />
    <path
        d="M195.236 177.709C197.609 177.78 199.59 175.913 199.661 173.54C199.732 171.167 197.866 169.186 195.493 169.115C193.119 169.044 191.138 170.91 191.067 173.283C190.996 175.656 192.863 177.638 195.236 177.709Z"
        fill="#EEA1A1" />
    <path
        d="M227.72 170.078C230.884 170.173 233.526 167.684 233.621 164.52C233.715 161.356 231.227 158.714 228.063 158.62C224.898 158.525 222.257 161.014 222.162 164.178C222.068 167.342 224.556 169.984 227.72 170.078Z"
        fill="#EEA1A1" />
    <path
        d="M199.234 139.837C201.212 139.896 202.863 138.341 202.922 136.363C202.981 134.386 201.426 132.735 199.448 132.676C197.471 132.616 195.82 134.172 195.76 136.149C195.701 138.127 197.257 139.778 199.234 139.837Z"
        fill="#EEA1A1" />
    <path
        d="M196.125 123.974C199.289 124.069 201.931 121.581 202.025 118.416C202.12 115.252 199.632 112.61 196.467 112.516C193.303 112.421 190.661 114.91 190.567 118.074C190.472 121.238 192.961 123.88 196.125 123.974Z"
        fill="#EEA1A1" />
    <path
        d="M216.23 98.7698C218.208 98.8289 219.859 97.2736 219.918 95.296C219.977 93.3183 218.422 91.6673 216.444 91.6082C214.467 91.5491 212.816 93.1044 212.757 95.082C212.697 97.0597 214.253 98.7107 216.23 98.7698Z"
        fill="#EEA1A1" />
    <path
        d="M208.824 82.7782C211.988 82.8727 214.63 80.3842 214.724 77.22C214.819 74.0558 212.33 71.4141 209.166 71.3196C206.002 71.2251 203.36 73.7135 203.266 76.8777C203.171 80.0419 205.66 82.6837 208.824 82.7782Z"
        fill="#EEA1A1" />
    <path
        d="M15.5112 195.278C17.8844 195.349 19.8656 193.483 19.9365 191.109C20.0074 188.736 18.1411 186.755 15.7679 186.684C13.3948 186.613 11.4135 188.479 11.3426 190.853C11.2717 193.226 13.1381 195.207 15.5112 195.278Z"
        fill="#EEA1A1" />
    <path
        d="M182.166 63.3459C184.935 63.4287 187.246 61.2512 187.329 58.4826C187.412 55.7139 185.234 53.4024 182.466 53.3197C179.697 53.237 177.385 55.4144 177.303 58.1831C177.22 60.9517 179.397 63.2632 182.166 63.3459Z"
        fill="#EEA1A1" />
    <path
        d="M188.638 50.6373C191.605 50.7259 194.082 48.3929 194.17 45.4265C194.259 42.46 191.926 39.9834 188.959 39.8948C185.993 39.8062 183.516 42.1392 183.428 45.1056C183.339 48.072 185.672 50.5486 188.638 50.6373Z"
        fill="#EEA1A1" />
    <path
        d="M137.315 29.0342C139.293 29.0933 140.944 27.538 141.003 25.5604C141.062 23.5827 139.507 21.9317 137.529 21.8726C135.552 21.8135 133.901 23.3688 133.842 25.3464C133.782 27.3241 135.338 28.9751 137.315 29.0342Z"
        fill="#EEA1A1" />
    <path
        d="M69.3329 49.2237C71.3106 49.2827 72.9616 47.7274 73.0207 45.7498C73.0798 43.7722 71.5245 42.1211 69.5469 42.062C67.5692 42.003 65.9182 43.5583 65.8591 45.5359C65.8 47.5135 67.3553 49.1646 69.3329 49.2237Z"
        fill="#EEA1A1" />
    <path
        d="M91.9292 60.6506C94.6979 60.7333 97.0094 58.5559 97.0921 55.7872C97.1748 53.0186 94.9974 50.7071 92.2287 50.6244C89.46 50.5417 87.1485 52.7191 87.0658 55.4877C86.9831 58.2564 89.1605 60.5679 91.9292 60.6506Z"
        fill="#EEA1A1" />
    <path
        d="M49.0024 57.9342C51.3756 58.0051 53.3569 56.1388 53.4277 53.7656C53.4986 51.3925 51.6323 49.4112 49.2591 49.3403C46.886 49.2694 44.9047 51.1357 44.8338 53.5089C44.7629 55.882 46.6293 57.8633 49.0024 57.9342Z"
        fill="#EEA1A1" />
    <path
        d="M33.3438 30.2284C36.508 30.3229 39.1497 27.8344 39.2442 24.6702C39.3388 21.506 36.8503 18.8643 33.6861 18.7698C30.5219 18.6753 27.8802 21.1637 27.7856 24.3279C27.6911 27.4921 30.1796 30.1339 33.3438 30.2284Z"
        fill="#EEA1A1" />
    <path
        d="M11.115 90.4937C14.0815 90.5823 16.5581 88.2494 16.6467 85.2829C16.7353 82.3165 14.4024 79.8399 11.4359 79.7513C8.46947 79.6627 5.99286 81.9956 5.90425 84.962C5.81564 87.9285 8.14858 90.4051 11.115 90.4937Z"
        fill="#EEA1A1" />
    <path
        d="M35.2875 109.134C37.2652 109.193 38.9162 107.638 38.9753 105.66C39.0344 103.683 37.4791 102.032 35.5015 101.972C33.5238 101.913 31.8728 103.469 31.8137 105.446C31.7546 107.424 33.3099 109.075 35.2875 109.134Z"
        fill="#EEA1A1" />
    <path
        d="M41.3794 145.156C44.5436 145.251 47.1854 142.762 47.2799 139.598C47.3744 136.434 44.8859 133.792 41.7217 133.698C38.5575 133.603 35.9158 136.091 35.8213 139.256C35.7268 142.42 38.2152 145.062 41.3794 145.156Z"
        fill="#EEA1A1" />
    <path
        d="M125.365 45.1621C127.342 45.2212 128.993 43.6659 129.052 41.6883C129.112 39.7107 127.556 38.0596 125.579 38.0005C123.601 37.9414 121.95 39.4967 121.891 41.4744C121.832 43.452 123.387 45.1031 125.365 45.1621Z"
        fill="#EEA1A1" />
    <path
        d="M137.09 60.5661C139.463 60.6369 141.445 58.7706 141.516 56.3974C141.587 54.0243 139.72 52.043 137.347 51.9721C134.974 51.9012 132.993 53.7676 132.922 56.1407C132.851 58.5139 134.717 60.4952 137.09 60.5661Z"
        fill="#EEA1A1" />
    <foreignObject x="28" y="28" width="180" height="180">
        <div xmlns="http://www.w3.org/1999/xhtml"
            style="backdrop-filter:blur(5px);clip-path:url(#bgblur_0_876_155425_clip_path);height:100%;width:100%"></div>
    </foreignObject>
    <g filter="url(#filter0_d_876_155425)" data-figma-bg-blur-radius="10">
        <path
            d="M118 198C162.183 198 198 162.183 198 118C198 73.8172 162.183 38 118 38C73.8172 38 38 73.8172 38 118C38 162.183 73.8172 198 118 198Z"
            fill="#FC5353" fill-opacity="0.22" shape-rendering="crispEdges" />
    </g>
    <path
        d="M118 76.875C109.866 76.875 101.915 79.2869 95.1522 83.8058C88.3892 88.3247 83.1181 94.7475 80.0055 102.262C76.8928 109.777 76.0784 118.046 77.6652 126.023C79.252 134.001 83.1688 141.328 88.9203 147.08C94.6717 152.831 101.999 156.748 109.977 158.335C117.954 159.922 126.223 159.107 133.738 155.995C141.252 152.882 147.675 147.611 152.194 140.848C156.713 134.085 159.125 126.134 159.125 118C159.125 107.093 154.792 96.6327 147.08 88.9202C139.367 81.2078 128.907 76.875 118 76.875ZM118 153.25C111.028 153.25 104.213 151.183 98.4162 147.309C92.6193 143.436 88.1013 137.931 85.4333 131.49C82.7653 125.048 82.0672 117.961 83.4273 111.123C84.7875 104.285 88.1447 98.0043 93.0745 93.0745C98.0043 88.1447 104.285 84.7874 111.123 83.4273C117.961 82.0672 125.049 82.7653 131.49 85.4332C137.931 88.1012 143.436 92.6193 147.309 98.4162C151.183 104.213 153.25 111.028 153.25 118C153.25 127.349 149.536 136.315 142.926 142.926C136.315 149.536 127.349 153.25 118 153.25ZM136.242 103.929L122.142 118L136.242 132.071C136.517 132.344 136.736 132.669 136.885 133.027C137.034 133.385 137.111 133.768 137.111 134.156C137.111 134.544 137.034 134.928 136.885 135.286C136.736 135.644 136.517 135.969 136.242 136.242C135.969 136.517 135.644 136.736 135.286 136.885C134.928 137.034 134.544 137.111 134.156 137.111C133.768 137.111 133.385 137.034 133.027 136.885C132.669 136.736 132.344 136.517 132.071 136.242L118 122.142L103.929 136.242C103.656 136.517 103.331 136.736 102.973 136.885C102.616 137.034 102.232 137.111 101.844 137.111C101.456 137.111 101.072 137.034 100.714 136.885C100.356 136.736 100.031 136.517 99.7581 136.242C99.4828 135.969 99.2643 135.644 99.1152 135.286C98.966 134.928 98.8892 134.544 98.8892 134.156C98.8892 133.768 98.966 133.385 99.1152 133.027C99.2643 132.669 99.4828 132.344 99.7581 132.071L113.858 118L99.7581 103.929C99.205 103.376 98.8943 102.626 98.8943 101.844C98.8943 101.061 99.205 100.311 99.7581 99.7581C100.311 99.205 101.062 98.8942 101.844 98.8942C102.626 98.8942 103.376 99.205 103.929 99.7581L118 113.858L132.071 99.7581C132.624 99.205 133.374 98.8942 134.156 98.8942C134.939 98.8942 135.689 99.205 136.242 99.7581C136.795 100.311 137.106 101.061 137.106 101.844C137.106 102.626 136.795 103.376 136.242 103.929Z"
        fill="#D80027" />
    <defs>
        <filter id="filter0_d_876_155425" x="28" y="28" width="180" height="180" filterUnits="userSpaceOnUse"
            color-interpolation-filters="sRGB">
            <feFlood flood-opacity="0" result="BackgroundImageFix" />
            <feColorMatrix in="SourceAlpha" type="matrix" values="0 0 0 0 0 0 0 0 0 0 0 0 0 0 0 0 0 0 127 0"
                result="hardAlpha" />
            <feOffset dy="2" />
            <feGaussianBlur stdDeviation="0.5" />
            <feComposite in2="hardAlpha" operator="out" />
            <feColorMatrix type="matrix" values="0 0 0 0 1 0 0 0 0 1 0 0 0 0 1 0 0 0 0.02 0" />
            <feBlend mode="normal" in2="BackgroundImageFix" result="effect1_dropShadow_876_155425" />
            <feBlend mode="normal" in="SourceGraphic" in2="effect1_dropShadow_876_155425" result="shape" />
        </filter>
        <clipPath id="bgblur_0_876_155425_clip_path" transform="translate(-28 -28)">
            <path
                d="M118 198C162.183 198 198 162.183 198 118C198 73.8172 162.183 38 118 38C73.8172 38 38 73.8172 38 118C38 162.183 73.8172 198 118 198Z" />
        </clipPath>
    </defs>
</svg>
