<svg width="24" height="24" viewBox="0 0 24 24" fill="none" xmlns="http://www.w3.org/2000/svg">
<path d="M12 22.6068C11.7022 22.6065 11.4093 22.53 11.1494 22.3846L7.7793 20.5125C6.10397 19.581 4.708 18.2186 3.73587 16.5665C2.76374 14.9144 2.25075 13.0325 2.25 11.1155V5.91977C2.24971 5.48719 2.40995 5.06989 2.69969 4.74867C2.98942 4.42746 3.38804 4.22518 3.81836 4.181C5.15905 4.03897 6.47855 3.74073 7.75 3.29236C8.9158 2.88035 10.0341 2.34475 11.0859 1.6947C11.3611 1.52642 11.6775 1.43741 12.0001 1.4375C12.3226 1.43759 12.6389 1.52676 12.9141 1.69519C13.966 2.34488 15.0843 2.88031 16.25 3.29236C17.5215 3.74074 18.8409 4.03899 20.1816 4.18103C20.612 4.22521 21.0106 4.42748 21.3003 4.74869C21.59 5.0699 21.7503 5.48719 21.75 5.91977V11.1156C21.7492 13.0325 21.2363 14.9144 20.2641 16.5665C19.292 18.2186 17.896 19.581 16.2207 20.5126L12.8496 22.3851C12.59 22.5303 12.2975 22.6066 12 22.6068ZM12 2.93588C11.9559 2.93568 11.9127 2.94768 11.875 2.97055C10.7319 3.67643 9.51668 4.25866 8.25 4.70636C6.8681 5.19401 5.43386 5.51816 3.97656 5.67218C3.91464 5.67755 3.857 5.70598 3.81504 5.75183C3.77308 5.79768 3.74987 5.85762 3.75 5.91977V11.1156C3.75059 12.765 4.19198 14.3843 5.02848 15.8058C5.86499 17.2274 7.06621 18.3996 8.50781 19.201L11.8789 21.0736C11.9157 21.0943 11.9572 21.1052 11.9995 21.1053C12.0417 21.1054 12.0832 21.0946 12.1201 21.0741L15.4922 19.2011C16.9338 18.3996 18.135 17.2274 18.9715 15.8059C19.808 14.3843 20.2494 12.765 20.25 11.1156V5.91977C20.2501 5.85762 20.2269 5.7977 20.185 5.75185C20.143 5.70601 20.0854 5.67758 20.0234 5.67221C18.5661 5.51818 17.1319 5.19402 15.75 4.70636C14.4833 4.25865 13.2681 3.6769 12.125 2.97101C12.0875 2.94778 12.0441 2.93561 12 2.93588Z" fill="#F3F1F3"/>
<path d="M11.5001 14.2485C11.3164 14.2488 11.1391 14.1813 11.0021 14.059L8.7521 12.059C8.60411 11.9267 8.5146 11.7412 8.50319 11.543C8.49179 11.3449 8.55942 11.1503 8.69125 11.0019C8.82309 10.8535 9.00838 10.7634 9.2065 10.7515C9.40463 10.7395 9.59943 10.8065 9.7482 10.9379L11.4523 12.4526L14.7033 8.98528C14.7704 8.91216 14.8513 8.85307 14.9413 8.81143C15.0314 8.76979 15.1288 8.74644 15.2279 8.74272C15.3271 8.73899 15.426 8.75498 15.5189 8.78975C15.6118 8.82452 15.6969 8.87738 15.7693 8.94528C15.8416 9.01317 15.8998 9.09474 15.9404 9.18527C15.981 9.27579 16.0032 9.37348 16.0058 9.47266C16.0084 9.57184 15.9913 9.67055 15.9554 9.76307C15.9196 9.85559 15.8658 9.94007 15.797 10.0116L12.047 14.0116C11.977 14.0865 11.8923 14.1462 11.7982 14.1869C11.7041 14.2277 11.6026 14.2486 11.5001 14.2485Z" fill="#F3F1F3"/>
</svg>
