<svg width="24" height="24" viewBox="0 0 24 24" fill="none" xmlns="http://www.w3.org/2000/svg">
    <g clip-path="url(#clip0_3786_10172)">
        <path d="M4.52855 19.7278C3.81379 19.7278 3.13253 19.3258 2.81983 18.6445L0.172986 12.96C-0.0392084 12.5021 -0.0615445 11.9995 0.105977 11.5193C0.273499 11.0502 0.61971 10.6705 1.0776 10.4583L3.9143 9.1293C4.11533 9.03996 4.34986 9.02879 4.55088 9.10697C4.75191 9.18514 4.9306 9.3415 5.01994 9.54252L8.54907 17.1257C8.75009 17.5501 8.56023 18.0415 8.14701 18.2425L5.31032 19.5715C5.05345 19.6943 4.78541 19.7502 4.51738 19.7502L4.52855 19.7278ZM3.86963 11.0055L1.79236 11.9772C1.70302 12.0218 1.64718 12.167 1.69185 12.2564L4.33869 17.9409C4.38336 18.0303 4.52855 18.0861 4.61789 18.0415L6.69516 17.0698L3.86963 11.0055Z" fill="#CCCCCC"/>
        <path d="M7.81222 18.3088C7.48834 18.3088 7.19797 18.1189 7.05279 17.8285L3.52366 10.2454C3.37848 9.92152 3.44549 9.54181 3.70235 9.29611L11.7434 1.47843C12.3688 0.964699 13.1171 0.78601 13.843 0.953531C14.5689 1.12105 15.172 1.60128 15.4847 2.28254L20.8566 13.7969C21.1693 14.4669 21.1581 15.2375 20.8119 15.9076C20.4657 16.5665 19.8626 17.0356 19.1255 17.1696L9.99 17.9067L7.96857 18.3088C7.96857 18.3088 7.85689 18.3199 7.81222 18.3199V18.3088ZM5.28823 10.0779L8.29245 16.5219L9.76664 16.2315L18.9021 15.4944C19.0362 15.4609 19.2149 15.3269 19.3154 15.1259C19.4159 14.9248 19.427 14.6903 19.3265 14.4893L13.9658 2.97496C13.8765 2.77393 13.6866 2.62875 13.4633 2.57291C13.2511 2.52823 13.0166 2.57291 12.849 2.71809L5.28823 10.0779Z" fill="#CCCCCC"/>
        <path d="M17.752 3.90264C17.6626 3.90264 17.5621 3.89147 17.4616 3.8468C17.026 3.69044 16.8027 3.21022 16.959 2.77466L17.4951 1.30047C17.6515 0.864913 18.1317 0.641551 18.5672 0.797904C19.0028 0.954258 19.2262 1.43449 19.0698 1.87004L18.5337 3.34423C18.4109 3.67928 18.087 3.89147 17.752 3.89147V3.90264Z" fill="#CCCCCC"/>
        <path d="M21.2024 7.4538C20.8897 7.4538 20.5881 7.27511 20.443 6.97357C20.2419 6.54918 20.4318 6.05778 20.845 5.85676L22.2634 5.19784C22.6877 4.99681 23.1791 5.18667 23.3802 5.59989C23.5812 6.02428 23.3913 6.51568 22.9781 6.7167L21.5598 7.37562C21.4481 7.43146 21.3252 7.4538 21.2024 7.4538Z" fill="#CCCCCC"/>
        <path d="M23.1685 12.904C23.068 12.904 22.9787 12.8928 22.8782 12.8481L21.404 12.3121C20.9684 12.1557 20.7451 11.6755 20.9014 11.2399C21.0578 10.8044 21.538 10.581 21.9736 10.7374L23.4477 11.2734C23.8833 11.4298 24.1067 11.91 23.9503 12.3456C23.8275 12.6806 23.5036 12.8928 23.1685 12.8928V12.904Z" fill="#CCCCCC"/>
        <path d="M9.43158 23.2451C9.25289 23.2451 9.06304 23.2116 8.89551 23.1446C8.50463 22.9994 8.19192 22.709 8.01323 22.3293L6.11465 18.253C6.02531 18.0519 6.01414 17.8174 6.09232 17.6164C6.1705 17.4042 6.32685 17.2367 6.52787 17.1473L7.47716 16.7006C7.54417 16.6671 7.60001 16.6559 7.66702 16.6336L9.77779 16.2204C10.1575 16.1534 10.5372 16.3432 10.6936 16.6894L12.3688 20.2856C12.5475 20.6653 12.5698 21.0897 12.4246 21.4806C12.2794 21.8714 11.9891 22.1841 11.6094 22.3628L10.0905 23.0664C9.87831 23.1669 9.65494 23.2116 9.43158 23.2116V23.2451ZM7.97973 18.3088L9.47625 21.5252L10.8053 20.911L9.44275 17.9961L7.97973 18.3088Z" fill="#CCCCCC"/>
    </g>
    <defs>
        <clipPath id="clip0_3786_10172">
            <rect width="24" height="24" fill="white"/>
        </clipPath>
    </defs>
</svg>
