<svg width="20" height="20" viewBox="0 0 20 20" fill="none" xmlns="http://www.w3.org/2000/svg">
    <path d="M15.86 5.84448H13.9135C13.5198 5.84448 13.2003 6.16351 13.2003 6.55766C13.2003 6.9518 13.5198 7.27083 13.9135 7.27083H15.8605C16.2537 7.27083 16.5736 7.59081 16.5736 7.98401V17.3104C16.5736 17.7036 16.2537 18.0236 15.8605 18.0236H5.13953C4.74633 18.0236 4.42635 17.7036 4.42635 17.3104V7.98401C4.42635 7.59081 4.74633 7.27083 5.13953 7.27083H7.0865C7.48065 7.27083 7.79968 6.9518 7.79968 6.55766C7.79968 6.16351 7.48065 5.84448 7.0865 5.84448H5.13953C3.95994 5.84448 3 6.80441 3 7.98401V17.3104C3 18.49 3.95994 19.45 5.13953 19.45H15.8605C17.0401 19.45 18 18.49 18 17.3104V7.98401C17.9995 6.80394 17.0401 5.84448 15.86 5.84448ZM7.84057 4.40481L9.81036 2.43502V11.8242C9.81036 12.2179 10.1294 12.5374 10.5235 12.5374C10.9177 12.5374 11.2367 12.2179 11.2367 11.8242V2.43502L13.2065 4.40481C13.3458 4.54412 13.5284 4.61354 13.711 4.61354C13.8935 4.61354 14.0761 4.54412 14.2154 4.40481C14.494 4.12668 14.494 3.67452 14.2154 3.39638L11.0285 0.208961C10.7494 -0.0696535 10.2982 -0.0696535 10.0196 0.208961L6.83213 3.39638C6.55352 3.67452 6.55352 4.12668 6.83213 4.40481C7.11075 4.68343 7.56195 4.68343 7.84057 4.40481Z" fill="#F3F1F3"/>
</svg>
