<svg width="35" height="35" viewBox="0 0 35 35" fill="none" xmlns="http://www.w3.org/2000/svg">
    <circle cx="17.5" cy="17.5" r="17.5" fill="#D3E1FF"/>
    <mask id="path-2-inside-1_0_1" fill="white">
        <path d="M25.5875 15.5847L13.6882 9.28292C13.2186 9.03536 12.6883 8.94723 12.1697 9.03054C11.6511 9.11385 11.1693 9.36455 10.7901 9.74846C10.4109 10.1324 10.1528 10.6308 10.0508 11.1758C9.94884 11.7208 10.0081 12.2859 10.2204 12.7939L12.2603 17.6283C12.3065 17.7452 12.3304 17.8707 12.3304 17.9974C12.3304 18.1242 12.3065 18.2496 12.2603 18.3665L10.2204 23.2009C10.0476 23.6121 9.97452 24.0624 10.0079 24.5111C10.0412 24.9598 10.1799 25.3925 10.4113 25.77C10.6426 26.1475 10.9594 26.4577 11.3328 26.6725C11.7062 26.8873 12.1243 26.9999 12.5492 27C12.9472 26.9958 13.3393 26.8974 13.6967 26.7119L19.7399 23.2009L25.596 20.4101C26.0181 20.1852 26.3729 19.8405 26.6208 19.4145C26.8687 18.9885 27 18.4979 27 17.9974C27 17.497 26.8687 17.0064 26.6208 16.5803C26.3729 16.1543 26.0181 15.8096 25.596 15.5847H25.5875ZM24.8311 18.7987L12.9317 25.1005C12.7755 25.1799 12.6 25.2069 12.4289 25.1777C12.2577 25.1486 12.0991 25.0647 11.9743 24.9374C11.8494 24.81 11.7643 24.6453 11.7303 24.4653C11.6964 24.2852 11.7152 24.0985 11.7843 23.9301L13.8157 19.0957C13.842 19.0312 13.8647 18.965 13.8837 18.8977H19.7399C19.9653 18.8977 20.1815 18.8028 20.3409 18.634C20.5003 18.4652 20.5898 18.2362 20.5898 17.9974C20.5898 17.7587 20.5003 17.5297 20.3409 17.3608C20.1815 17.192 19.9653 17.0972 19.7399 17.0972H13.8837C13.8647 17.0298 13.842 16.9637 13.8157 16.8991L11.7843 12.0647C11.7152 11.8963 11.6964 11.7096 11.7303 11.5296C11.7643 11.3495 11.8494 11.1848 11.9743 11.0575C12.0991 10.9301 12.2577 10.8462 12.4289 10.8171C12.6 10.788 12.7755 10.8149 12.9317 10.8944L24.8311 17.1962C24.9703 17.2717 25.0871 17.3865 25.1687 17.5279C25.2503 17.6693 25.2935 17.8317 25.2935 17.9974C25.2935 18.1631 25.2503 18.3256 25.1687 18.467C25.0871 18.6083 24.9703 18.7231 24.8311 18.7987Z"/>
    </mask>
    <path d="M25.5875 15.5847L13.6882 9.28292C13.2186 9.03536 12.6883 8.94723 12.1697 9.03054C11.6511 9.11385 11.1693 9.36455 10.7901 9.74846C10.4109 10.1324 10.1528 10.6308 10.0508 11.1758C9.94884 11.7208 10.0081 12.2859 10.2204 12.7939L12.2603 17.6283C12.3065 17.7452 12.3304 17.8707 12.3304 17.9974C12.3304 18.1242 12.3065 18.2496 12.2603 18.3665L10.2204 23.2009C10.0476 23.6121 9.97452 24.0624 10.0079 24.5111C10.0412 24.9598 10.1799 25.3925 10.4113 25.77C10.6426 26.1475 10.9594 26.4577 11.3328 26.6725C11.7062 26.8873 12.1243 26.9999 12.5492 27C12.9472 26.9958 13.3393 26.8974 13.6967 26.7119L19.7399 23.2009L25.596 20.4101C26.0181 20.1852 26.3729 19.8405 26.6208 19.4145C26.8687 18.9885 27 18.4979 27 17.9974C27 17.497 26.8687 17.0064 26.6208 16.5803C26.3729 16.1543 26.0181 15.8096 25.596 15.5847H25.5875ZM24.8311 18.7987L12.9317 25.1005C12.7755 25.1799 12.6 25.2069 12.4289 25.1777C12.2577 25.1486 12.0991 25.0647 11.9743 24.9374C11.8494 24.81 11.7643 24.6453 11.7303 24.4653C11.6964 24.2852 11.7152 24.0985 11.7843 23.9301L13.8157 19.0957C13.842 19.0312 13.8647 18.965 13.8837 18.8977H19.7399C19.9653 18.8977 20.1815 18.8028 20.3409 18.634C20.5003 18.4652 20.5898 18.2362 20.5898 17.9974C20.5898 17.7587 20.5003 17.5297 20.3409 17.3608C20.1815 17.192 19.9653 17.0972 19.7399 17.0972H13.8837C13.8647 17.0298 13.842 16.9637 13.8157 16.8991L11.7843 12.0647C11.7152 11.8963 11.6964 11.7096 11.7303 11.5296C11.7643 11.3495 11.8494 11.1848 11.9743 11.0575C12.0991 10.9301 12.2577 10.8462 12.4289 10.8171C12.6 10.788 12.7755 10.8149 12.9317 10.8944L24.8311 17.1962C24.9703 17.2717 25.0871 17.3865 25.1687 17.5279C25.2503 17.6693 25.2935 17.8317 25.2935 17.9974C25.2935 18.1631 25.2503 18.3256 25.1687 18.467C25.0871 18.6083 24.9703 18.7231 24.8311 18.7987Z" fill="black"/>
    <path d="M25.5875 15.5847L23.2475 20.0033L24.3453 20.5847H25.5875V15.5847ZM13.6882 9.28292L16.0282 4.86431L16.0199 4.85989L13.6882 9.28292ZM10.2204 12.7939L5.60701 14.7219L5.61033 14.7298L5.61368 14.7377L10.2204 12.7939ZM12.2603 17.6283L16.909 15.7874L16.8886 15.7357L16.8669 15.6845L12.2603 17.6283ZM12.2603 18.3665L16.8669 20.3103L16.8886 20.2591L16.909 20.2074L12.2603 18.3665ZM10.2204 23.2009L5.61367 21.2571L5.61089 21.2637L10.2204 23.2009ZM12.5492 27L12.548 32L12.575 32L12.6021 31.9997L12.5492 27ZM13.6967 26.7119L15.9994 31.1501L16.1053 31.0951L16.2085 31.0352L13.6967 26.7119ZM25.596 20.4101L27.747 24.9238L27.8483 24.8755L27.9472 24.8228L25.596 20.4101ZM25.596 15.5847L27.9472 11.172L26.845 10.5847H25.596V15.5847ZM24.8311 18.7987L27.1711 23.2173L27.1935 23.2054L27.2158 23.1933L24.8311 18.7987ZM12.9317 25.1005L15.1983 29.5572L15.2352 29.5384L15.2718 29.5191L12.9317 25.1005ZM11.7843 23.9301L7.1747 21.9932L7.16648 22.0127L7.15843 22.0324L11.7843 23.9301ZM13.8157 19.0957L18.4253 21.0327L18.4359 21.0074L18.4462 20.982L13.8157 19.0957ZM13.8837 18.8977V13.8977H10.0985L9.0713 17.5408L13.8837 18.8977ZM13.8837 17.0972L9.0713 18.454L10.0985 22.0972H13.8837V17.0972ZM13.8157 16.8991L18.4462 15.0129L18.4359 14.9875L18.4253 14.9622L13.8157 16.8991ZM11.7843 12.0647L7.15843 13.9625L7.16648 13.9821L7.1747 14.0017L11.7843 12.0647ZM12.9317 10.8944L15.2718 6.47578L15.2352 6.4564L15.1983 6.43764L12.9317 10.8944ZM24.8311 17.1962L27.2158 12.8015L27.1935 12.7894L27.1711 12.7776L24.8311 17.1962ZM19.7399 23.2009L17.5888 18.6873L17.4046 18.7751L17.2281 18.8776L19.7399 23.2009ZM27.9276 11.1661L16.0282 4.86431L11.3481 13.7015L23.2475 20.0033L27.9276 11.1661ZM16.0199 4.85989C14.6029 4.11289 12.9772 3.83671 11.3767 4.09383L12.9627 13.9672C12.3994 14.0577 11.8343 13.9578 11.3565 13.706L16.0199 4.85989ZM11.3767 4.09383C9.77849 4.35055 8.33691 5.11699 7.23277 6.23488L14.3475 13.262C14.0017 13.6121 13.5236 13.8771 12.9627 13.9672L11.3767 4.09383ZM7.23277 6.23488C6.13218 7.34918 5.41614 8.75927 5.13606 10.2564L14.9655 12.0953C14.8894 12.5024 14.6897 12.9156 14.3475 13.262L7.23277 6.23488ZM5.13606 10.2564C4.85616 11.7525 5.01604 13.3077 5.60701 14.7219L14.8337 10.866C15.0001 11.264 15.0415 11.6892 14.9655 12.0953L5.13606 10.2564ZM5.61368 14.7377L7.65357 19.5721L16.8669 15.6845L14.8271 10.8501L5.61368 14.7377ZM7.61149 19.4692C7.42377 18.9952 7.33038 18.4957 7.33038 17.9974H17.3304C17.3304 17.2457 17.1893 16.4952 16.909 15.7874L7.61149 19.4692ZM7.33038 17.9974C7.33038 17.4992 7.42377 16.9997 7.61149 16.5256L16.909 20.2074C17.1893 19.4996 17.3304 18.7492 17.3304 17.9974H7.33038ZM7.65357 16.4227L5.61368 21.2571L14.8271 25.1447L16.8669 20.3103L7.65357 16.4227ZM5.61089 21.2637C5.1291 22.4101 4.93024 23.6519 5.0216 24.8816L14.9941 24.1406C15.0188 24.473 14.9661 24.814 14.8298 25.1381L5.61089 21.2637ZM5.0216 24.8816C5.11298 26.1114 5.49373 27.3151 6.14845 28.3831L14.6741 23.1568C14.866 23.4699 14.9694 23.8081 14.9941 24.1406L5.0216 24.8816ZM6.14845 28.3831C6.80393 29.4524 7.72101 30.363 8.83943 31.0064L13.8262 22.3386C14.1978 22.5524 14.4814 22.8425 14.6741 23.1568L6.14845 28.3831ZM8.83943 31.0064C9.95999 31.6511 11.2358 31.9997 12.548 32L12.5505 22C13.0128 22.0001 13.4524 22.1235 13.8262 22.3386L8.83943 31.0064ZM12.6021 31.9997C13.7932 31.9871 14.9549 31.692 15.9994 31.1501L11.3939 22.2738C11.7236 22.1027 12.1013 22.0045 12.4964 22.0003L12.6021 31.9997ZM27.9472 24.8228C29.2158 24.1469 30.242 23.1329 30.9424 21.9293L22.2992 16.8997C22.5038 16.5481 22.8204 16.2236 23.2448 15.9974L27.9472 24.8228ZM30.9424 21.9293C31.6417 20.7275 32 19.3671 32 17.9974H22C22 17.6286 22.0957 17.2495 22.2992 16.8997L30.9424 21.9293ZM32 17.9974C32 16.6277 31.6417 15.2674 30.9424 14.0656L22.2992 19.0951C22.0957 18.7454 22 18.3662 22 17.9974H32ZM30.9424 14.0656C30.242 12.8619 29.2158 11.848 27.9472 11.172L23.2448 19.9974C22.8204 19.7713 22.5038 19.4467 22.2992 19.0951L30.9424 14.0656ZM25.596 10.5847H25.5875V20.5847H25.596V10.5847ZM22.491 14.38L10.5917 20.6818L15.2718 29.5191L27.1711 23.2173L22.491 14.38ZM10.6651 20.6437C11.4565 20.2412 12.3692 20.0956 13.2684 20.2487L11.5893 30.1068C12.8308 30.3182 14.0945 30.1186 15.1983 29.5572L10.6651 20.6437ZM13.2684 20.2487C14.1652 20.4015 14.9538 20.8344 15.5445 21.4369L8.40397 28.4378C9.24441 29.295 10.3503 29.8957 11.5893 30.1068L13.2684 20.2487ZM15.5445 21.4369C16.1319 22.036 16.4997 22.7749 16.6437 23.5386L6.81696 25.392C7.02891 26.5157 7.56694 27.5841 8.40397 28.4378L15.5445 21.4369ZM16.6437 23.5386C16.7876 24.3013 16.7104 25.096 16.4101 25.8279L7.15843 22.0324C6.72004 23.101 6.60519 24.2691 6.81696 25.392L16.6437 23.5386ZM16.3939 25.8671L18.4253 21.0327L9.20608 17.1588L7.1747 21.9932L16.3939 25.8671ZM18.4462 20.982C18.5433 20.7438 18.6266 20.5009 18.696 20.2546L9.0713 17.5408C9.10277 17.4292 9.14068 17.3186 9.18512 17.2095L18.4462 20.982ZM13.8837 23.8977H19.7399V13.8977H13.8837V23.8977ZM19.7399 23.8977C21.3872 23.8977 22.9045 23.2019 23.9765 22.0665L16.7052 15.2015C17.4584 14.4037 18.5434 13.8977 19.7399 13.8977V23.8977ZM23.9765 22.0665C25.0393 20.9408 25.5898 19.4725 25.5898 17.9974H15.5898C15.5898 16.9999 15.9612 15.9895 16.7052 15.2015L23.9765 22.0665ZM25.5898 17.9974C25.5898 16.5224 25.0393 15.054 23.9765 13.9283L16.7052 20.7933C15.9612 20.0053 15.5898 18.9949 15.5898 17.9974H25.5898ZM23.9765 13.9283C22.9045 12.7929 21.3872 12.0972 19.7399 12.0972V22.0972C18.5434 22.0972 17.4584 21.5911 16.7052 20.7933L23.9765 13.9283ZM19.7399 12.0972H13.8837V22.0972H19.7399V12.0972ZM18.696 15.7403C18.6266 15.4939 18.5433 15.251 18.4462 15.0129L9.18512 18.7854C9.14068 18.6763 9.10277 18.5656 9.0713 18.454L18.696 15.7403ZM18.4253 14.9622L16.3939 10.1278L7.1747 14.0017L9.20608 18.836L18.4253 14.9622ZM16.4101 10.167C16.7104 10.8988 16.7876 11.6935 16.6437 12.4563L6.81696 10.6029C6.60519 11.7257 6.72004 12.8939 7.15843 13.9625L16.4101 10.167ZM16.6437 12.4563C16.4997 13.22 16.1319 13.9589 15.5445 14.5579L8.40397 7.55703C7.56695 8.41076 7.02891 9.47913 6.81696 10.6029L16.6437 12.4563ZM15.5445 14.5579C14.9538 15.1604 14.1652 15.5934 13.2684 15.7461L11.5893 5.88809C10.3503 6.09913 9.24439 6.69983 8.40397 7.55703L15.5445 14.5579ZM13.2684 15.7461C12.3692 15.8993 11.4565 15.7536 10.6651 15.3511L15.1983 6.43764C14.0944 5.87624 12.8308 5.67663 11.5893 5.88809L13.2684 15.7461ZM10.5917 15.313L22.491 21.6148L27.1711 12.7776L15.2718 6.47578L10.5917 15.313ZM22.4464 21.5909C21.7489 21.2124 21.2031 20.6595 20.8382 20.0272L29.4993 15.0286C28.9712 14.1136 28.1917 13.3311 27.2158 12.8015L22.4464 21.5909ZM20.8382 20.0272C20.4743 19.3966 20.2935 18.6952 20.2935 17.9974H30.2935C30.2935 16.9683 30.0263 15.9419 29.4993 15.0286L20.8382 20.0272ZM20.2935 17.9974C20.2935 17.2996 20.4743 16.5982 20.8382 15.9677L29.4993 20.9662C30.0263 20.053 30.2935 19.0266 30.2935 17.9974H20.2935ZM20.8382 15.9677C21.2031 15.3354 21.7489 14.7824 22.4464 14.404L27.2158 23.1933C28.1917 22.6638 28.9712 21.8813 29.4993 20.9662L20.8382 15.9677ZM16.2085 31.0352L22.2516 27.5242L17.2281 18.8776L11.1849 22.3886L16.2085 31.0352ZM21.8909 27.7146L27.747 24.9238L23.445 15.8965L17.5888 18.6873L21.8909 27.7146Z" fill="black" mask="url(#path-2-inside-1_0_1)"/>
</svg>
