<svg width="24" height="24" viewBox="0 0 24 24" fill="none" xmlns="http://www.w3.org/2000/svg">
    <g clip-path="url(#clip0_111_1373)">
        <path d="M4.0308 23.9999C3.72256 23.9987 3.41849 23.9267 3.1409 23.7891C2.80063 23.6251 2.51276 23.3652 2.31079 23.0398C2.10881 22.7145 2.00104 22.3369 2 21.9511V2.04878C2.00149 1.7772 2.05528 1.5086 2.15829 1.25843C2.26129 1.00826 2.41148 0.781449 2.60021 0.591048C2.78894 0.400648 3.01249 0.250412 3.25801 0.14898C3.50352 0.0475475 3.76616 -0.00307912 4.0308 1.1351e-05H20.0034C20.532 0.00308462 21.0381 0.219923 21.4119 0.603478C21.7857 0.987032 21.997 1.50636 22 2.04878V21.9511C21.9926 22.3219 21.8873 22.6836 21.6952 22.9977C21.5032 23.3119 21.2317 23.5667 20.9097 23.7349C20.5876 23.9031 20.2271 23.9785 19.8666 23.953C19.5061 23.9275 19.159 23.8021 18.8625 23.5901L12.2453 18.4975C12.1967 18.4576 12.1364 18.4358 12.0742 18.4358C12.0119 18.4358 11.9516 18.4576 11.903 18.4975L5.22875 23.5901C4.88239 23.8546 4.46254 23.9982 4.0308 23.9999ZM4.0308 1.7561C3.95516 1.7561 3.88261 1.78694 3.82912 1.84182C3.77563 1.89671 3.74558 1.97116 3.74558 2.04878V21.9511C3.74518 22.0053 3.76004 22.0584 3.78838 22.1041C3.81672 22.1498 3.85732 22.1861 3.9053 22.2087C3.94898 22.2394 4.00068 22.2558 4.05362 22.2558C4.10656 22.2558 4.15827 22.2394 4.20194 22.2087L10.8762 17.0926C11.2233 16.8302 11.6431 16.6886 12.0742 16.6886C12.5053 16.6886 12.925 16.8302 13.2721 17.0926L19.8893 22.1853C19.933 22.216 19.9847 22.2324 20.0376 22.2324C20.0906 22.2324 20.1423 22.216 20.186 22.1853C20.2339 22.1627 20.2746 22.1264 20.3029 22.0807C20.3312 22.035 20.3461 21.9819 20.3457 21.9277V2.04878C20.3466 2.00488 20.3378 1.96135 20.32 1.9214C20.3023 1.88145 20.276 1.84612 20.2431 1.81801C20.2103 1.7899 20.1716 1.76974 20.1301 1.75903C20.0887 1.74831 20.0453 1.74731 20.0034 1.7561H4.0308Z" fill="#F3F1F3"/>
    </g>
    <defs>
        <clipPath id="clip0_111_1373">
            <rect width="24" height="24" fill="white"/>
        </clipPath>
    </defs>
</svg>
