<svg width="24" height="24" viewBox="0 0 24 24" fill="none" xmlns="http://www.w3.org/2000/svg">
<path fill-rule="evenodd" clip-rule="evenodd" d="M11.9999 8.42969C10.0281 8.42969 8.42969 10.0282 8.42969 11.9999C8.42969 13.9718 10.0281 15.5702 11.9999 15.5702C13.9717 15.5702 15.5702 13.9718 15.5702 11.9999C15.5702 10.0282 13.9717 8.42969 11.9999 8.42969ZM9.85779 11.9999C9.85779 10.8169 10.8169 9.8578 11.9999 9.8578C13.183 9.8578 14.142 10.8169 14.142 11.9999C14.142 13.1831 13.183 14.1421 11.9999 14.1421C10.8169 14.1421 9.85779 13.1831 9.85779 11.9999Z" fill="#F3F1F3"/>
<path fill-rule="evenodd" clip-rule="evenodd" d="M15.2507 3.65226C14.3172 0.381538 9.68198 0.381539 8.74856 3.65226C8.45935 4.66564 7.41823 5.26674 6.396 5.01051C3.09677 4.18351 0.779151 8.19776 3.14497 10.6415C3.87798 11.3987 3.87798 12.6009 3.14497 13.3579C0.779151 15.8017 3.09677 19.8159 6.396 18.9889C7.41823 18.7327 8.45935 19.3338 8.74856 20.3472C9.68198 23.6179 14.3172 23.6179 15.2507 20.3472C15.5398 19.3338 16.581 18.7327 17.6032 18.9889C20.9024 19.8159 23.2201 15.8017 20.8543 13.3579C20.1213 12.6009 20.1213 11.3987 20.8543 10.6415C23.2201 8.19776 20.9024 4.18351 17.6032 5.01051C16.581 5.26674 15.5398 4.66564 15.2507 3.65226ZM10.1218 4.04417C10.661 2.15504 13.3383 2.15504 13.8773 4.04417C14.3781 5.79868 16.1807 6.83938 17.9505 6.39575C19.856 5.91809 21.1946 8.23668 19.8282 9.64815C18.5591 10.959 18.5591 13.0404 19.8282 14.3513C21.1946 15.7628 19.856 18.0813 17.9505 17.6037C16.1807 17.1601 14.3781 18.2008 13.8773 19.9553C13.3383 21.8444 10.661 21.8444 10.1218 19.9553C9.62112 18.2008 7.81858 17.1601 6.04877 17.6037C4.14317 18.0813 2.80454 15.7628 4.17101 14.3513C5.4401 13.0404 5.4401 10.959 4.17101 9.64815C2.80454 8.23668 4.14317 5.91809 6.04877 6.39575C7.81858 6.83938 9.62112 5.79868 10.1218 4.04417Z" fill="#F3F1F3"/>
</svg>
