<svg width="36" height="36" viewBox="0 0 36 36" fill="none" xmlns="http://www.w3.org/2000/svg">
<g clip-path="url(#clip0_876_130129)">
<path d="M17 25C15.4177 25 13.871 24.5308 12.5554 23.6517C11.2398 22.7727 10.2145 21.5233 9.60897 20.0615C9.00347 18.5997 8.84504 16.9911 9.15372 15.4393C9.4624 13.8874 10.2243 12.462 11.3431 11.3431C12.462 10.2243 13.8874 9.4624 15.4393 9.15372C16.9911 8.84504 18.5997 9.00347 20.0615 9.60897C21.5233 10.2145 22.7727 11.2398 23.6517 12.5554C24.5308 13.871 25 15.4177 25 17C24.9976 19.121 24.154 21.1544 22.6542 22.6542C21.1544 24.154 19.121 24.9976 17 25ZM17 11C15.8133 11 14.6533 11.3519 13.6666 12.0112C12.6799 12.6705 11.9108 13.6075 11.4567 14.7039C11.0026 15.8003 10.8838 17.0067 11.1153 18.1705C11.3468 19.3344 11.9182 20.4035 12.7574 21.2426C13.5965 22.0817 14.6656 22.6532 15.8295 22.8847C16.9933 23.1162 18.1997 22.9974 19.2961 22.5433C20.3925 22.0891 21.3295 21.3201 21.9888 20.3334C22.6481 19.3467 23 18.1867 23 17C22.9984 15.4092 22.3658 13.884 21.2409 12.7591C20.116 11.6342 18.5908 11.0016 17 11Z" fill="#F3F1F3"/>
<path d="M25.9994 26.9994C25.7342 26.9994 25.4799 26.894 25.2924 26.7064L21.2924 22.7064C21.1103 22.5178 21.0095 22.2652 21.0118 22.003C21.014 21.7408 21.1192 21.49 21.3046 21.3046C21.49 21.1192 21.7408 21.014 22.003 21.0118C22.2652 21.0095 22.5178 21.1103 22.7064 21.2924L26.7064 25.2924C26.8462 25.4323 26.9414 25.6104 26.98 25.8044C27.0186 25.9983 26.9988 26.1994 26.9231 26.3821C26.8474 26.5648 26.7193 26.7209 26.5549 26.8308C26.3905 26.9407 26.1972 26.9994 25.9994 26.9994Z" fill="#F3F1F3"/>
</g>
<defs>
<clipPath id="clip0_876_130129">
<rect width="36" height="36" fill="white"/>
</clipPath>
</defs>
</svg>
