<svg width="52" height="52" viewBox="0 0 52 52" fill="none" xmlns="http://www.w3.org/2000/svg">
    <g clip-path="url(#clip0_876_131185)">
        <path
            d="M26 52C40.3594 52 52 40.3594 52 26C52 11.6406 40.3594 0 26 0C11.6406 0 0 11.6406 0 26C0 40.3594 11.6406 52 26 52Z"
            fill="#F3F1F3" />
        <path
            d="M32.7386 29.6152C32.7386 26.0584 30.617 24.8286 26.3582 24.3346C23.3266 23.9186 22.7182 23.123 22.7182 21.6852C22.7182 20.2474 23.74 19.3452 25.7654 19.3452C26.4886 19.2321 27.2281 19.3871 27.8449 19.7812C28.4617 20.1753 28.9131 20.7813 29.1142 21.485C29.1671 21.6347 29.2644 21.7647 29.3931 21.8576C29.5218 21.9505 29.6757 22.0019 29.8344 22.005H31.4282C31.6118 22.0058 31.7883 21.9346 31.92 21.8068C32.0517 21.679 32.1281 21.5047 32.1328 21.3212V21.2744C31.9385 20.1744 31.3854 19.1697 30.56 18.4172C29.7345 17.6646 28.6831 17.2065 27.5698 17.1144V14.5872C27.5698 14.1868 27.2682 13.8852 26.7586 13.7734H25.1622C24.7644 13.7734 24.4602 14.075 24.364 14.5872V16.9272C23.0621 16.9778 21.8271 17.5169 20.9049 18.4372C19.9826 19.3575 19.4409 20.5915 19.3876 21.8932C19.3876 25.2446 21.413 26.5732 25.6718 27.0776C28.511 27.5716 29.4366 28.1956 29.4366 29.805C29.4366 31.4144 28.017 32.5506 26.0878 32.5506C23.4384 32.5506 22.531 31.4326 22.2268 29.9168C22.1965 29.7481 22.1083 29.5952 21.9773 29.4846C21.8462 29.374 21.6807 29.3126 21.5092 29.311H19.8504C19.7603 29.309 19.6706 29.3247 19.5865 29.3573C19.5025 29.3899 19.4257 29.4387 19.3605 29.501C19.2953 29.5633 19.243 29.6378 19.2066 29.7203C19.1702 29.8028 19.1505 29.8917 19.1484 29.9818V30.1092C19.3312 31.4294 19.9737 32.6428 20.9628 33.5359C21.952 34.429 23.2245 34.9447 24.5564 34.992V37.4412C24.5564 37.8416 24.858 38.1432 25.3702 38.2394H26.964C27.1737 38.2286 27.3722 38.1414 27.522 37.9944C27.6719 37.8474 27.7629 37.6506 27.7778 37.4412V35.0024C29.1346 34.8816 30.4 34.2677 31.3348 33.2769C32.2695 32.2861 32.8087 30.9871 32.8504 29.6256L32.7386 29.6152Z"
            fill="#2FA926" />
        <path
            d="M20.8283 40.2069C17.8896 39.1469 15.3492 37.2063 13.5536 34.6498C11.758 32.0933 10.7946 29.0453 10.7946 25.9212C10.7946 22.7971 11.758 19.749 13.5536 17.1925C15.3492 14.636 17.8896 12.6955 20.8283 11.6355C21.0216 11.5474 21.1832 11.4022 21.2915 11.2196C21.3998 11.0369 21.4496 10.8255 21.4341 10.6137V9.24088C21.4424 9.05831 21.3862 8.87864 21.2755 8.73323C21.1648 8.58783 21.0065 8.48591 20.8283 8.44528C20.6813 8.42816 20.5333 8.46818 20.4149 8.55708C16.7217 9.73277 13.4983 12.0528 11.2108 15.1816C8.92334 18.3104 7.69043 22.0857 7.69043 25.9615C7.69043 29.8373 8.92334 33.6126 11.2108 36.7414C13.4983 39.8702 16.7217 42.1902 20.4149 43.3659C20.557 43.4493 20.7264 43.4728 20.8858 43.4314C21.0452 43.3899 21.1817 43.2869 21.2651 43.1449C21.3009 43.0845 21.3264 43.0186 21.3405 42.9499C21.4341 42.8563 21.4341 42.7601 21.4341 42.5521V41.1325C21.4059 40.9436 21.3372 40.7631 21.2326 40.6034C21.128 40.4436 20.9901 40.3083 20.8283 40.2069ZM31.5819 8.53888C31.444 8.45562 31.2786 8.43048 31.1222 8.46899C30.9657 8.5075 30.8309 8.6065 30.7473 8.74428C30.7105 8.80413 30.6849 8.87022 30.6719 8.93928C30.5757 9.05108 30.5757 9.14728 30.5757 9.35268V10.7723C30.593 10.9752 30.6566 11.1714 30.7617 11.3458C30.8667 11.5202 31.0103 11.6683 31.1815 11.7785C34.1045 12.8477 36.6284 14.7892 38.4115 17.3402C40.1946 19.8912 41.1509 22.9284 41.1509 26.0408C41.1509 29.1532 40.1946 32.1904 38.4115 34.7414C36.6284 37.2923 34.1045 39.2338 31.1815 40.3031C30.9867 40.389 30.8235 40.5337 30.7149 40.7169C30.6063 40.9001 30.5576 41.1127 30.5757 41.3249V42.7445C30.5631 42.9301 30.6172 43.1141 30.7282 43.2633C30.8393 43.4126 31.0001 43.5172 31.1815 43.5583C31.3242 43.5718 31.4669 43.532 31.5819 43.4465C35.2776 42.2591 38.5009 39.9292 40.7877 36.7926C43.0745 33.656 44.3066 29.8744 44.3066 25.9927C44.3066 22.111 43.0745 18.3294 40.7877 15.1928C38.5009 12.0561 35.2776 9.7263 31.5819 8.53888Z"
            fill="#2FA926" />
    </g>
    <defs>
        <clipPath id="clip0_876_131185">
            <rect width="52" height="52" fill="white" />
        </clipPath>
    </defs>
</svg>
