<svg width="24" height="24" viewBox="0 0 24 24" fill="none" xmlns="http://www.w3.org/2000/svg">
    <path d="M15.6998 12.7C18.2998 10.7 18.7998 6.89999 16.6998 4.29999C14.5998 1.69999 10.8998 1.19999 8.29979 3.29999C5.69979 5.39999 5.19979 9.09999 7.29979 11.7C7.59979 12.1 7.89979 12.4 8.29979 12.7C4.89979 14.1 2.49979 17.2 2.09979 20.9C1.99979 21.5 2.39979 21.9 2.99979 22C3.59979 22.1 3.99979 21.7 4.09979 21.1C4.59979 16.7 8.59979 13.5 12.8998 14C16.5998 14.4 19.4998 17.3 19.9998 21.1C20.0998 21.6 20.4998 22 20.9998 22H21.0998C21.5998 21.9 21.9998 21.4 21.9998 20.9C21.4998 17.2 19.0998 14.1 15.6998 12.7Z" fill="#CCCCCC"/>
</svg>
