<svg width="24" height="24" viewBox="0 0 24 24" fill="none" xmlns="http://www.w3.org/2000/svg">
<path d="M15.7003 12.6993C18.3003 10.6993 18.8003 6.89932 16.7003 4.29932C14.6003 1.69932 10.9003 1.19932 8.30028 3.29932C5.70028 5.39932 5.20028 9.09932 7.30028 11.6993C7.60028 12.0993 7.90028 12.3993 8.30028 12.6993C4.90028 14.0993 2.50028 17.1993 2.10028 20.8993C2.00028 21.4993 2.40028 21.8993 3.00028 21.9993C3.60028 22.0993 4.00028 21.6993 4.10028 21.0993C4.60028 16.6993 8.60028 13.4993 12.9003 13.9993C16.6003 14.3993 19.5003 17.2993 20.0003 21.0993C20.1003 21.5993 20.5003 21.9993 21.0003 21.9993H21.1003C21.6003 21.8993 22.0003 21.3993 22.0003 20.8993C21.5003 17.1993 19.1003 14.0993 15.7003 12.6993ZM12.0003 11.9993C9.80028 11.9993 8.00028 10.1993 8.00028 7.99932C8.00028 5.79932 9.80028 3.99932 12.0003 3.99932C14.2003 3.99932 16.0003 5.79932 16.0003 7.99932C16.0003 10.1993 14.2003 11.9993 12.0003 11.9993Z" fill="#CCCCCC"/>
</svg>
