<svg width="35" height="35" viewBox="0 0 35 35" fill="none" xmlns="http://www.w3.org/2000/svg">
<circle cx="17.5" cy="17.5" r="17.5" fill="#D3E1FF"/>
<path d="M25.8747 14.0625C25.8747 15.2646 25.4067 16.3946 24.5567 17.2446L16.4511 25.4464C15.7918 26.1056 14.9262 26.4352 14.061 26.4352C13.197 26.4352 12.333 26.1062 11.6755 25.4486C10.3598 24.1324 10.3598 21.9915 11.6755 20.6758L17.5311 14.8534C18.4103 13.9798 19.8075 13.9511 20.6473 14.7898C21.0574 15.1999 21.2734 15.7534 21.256 16.3491C21.2385 16.9318 20.9983 17.4842 20.5793 17.9032L15.0223 23.4602C14.8024 23.6801 14.4469 23.6801 14.227 23.4602C14.007 23.2403 14.007 22.8847 14.227 22.6648L19.7839 17.1079C19.9993 16.8924 20.1231 16.6112 20.1315 16.3159C20.14 16.0335 20.0404 15.7736 19.852 15.5852C19.4498 15.1847 18.7647 15.2134 18.3248 15.651L12.4697 21.4723C11.5939 22.3487 11.5939 23.7763 12.4708 24.6532C13.3483 25.5302 14.7754 25.5302 15.6529 24.6532L23.7585 16.4514C24.3987 15.8113 24.7497 14.9642 24.7497 14.0625C24.7497 13.1608 24.3987 12.3137 23.7613 11.6764C23.1235 11.0385 22.2763 10.6875 21.3747 10.6875C20.473 10.6875 19.6258 11.0385 18.988 11.6764L11.0837 19.5244C10.8627 19.7432 10.5072 19.7421 10.2883 19.521C10.0695 19.3005 10.0707 18.945 10.2912 18.7256L18.1943 10.8793C19.0425 10.0305 20.1726 9.5625 21.3747 9.5625C22.5767 9.5625 23.7068 10.0305 24.5567 10.881C25.4067 11.7304 25.8747 12.8604 25.8747 14.0625Z" fill="#0B0B0B"/>
</svg>
