<svg width="46" height="46" viewBox="0 0 46 46" fill="none" xmlns="http://www.w3.org/2000/svg">
<rect width="46" height="46" rx="23" fill="#3A3A3A"/>
<path d="M22.9993 29.0611C22.5444 29.0611 22.1758 28.6924 22.1758 28.2375V17.763C22.1758 17.3081 22.5444 16.9395 22.9993 16.9395C23.4543 16.9395 23.8229 17.3081 23.8229 17.763V28.2375C23.8229 28.6924 23.4543 29.0611 22.9993 29.0611Z" fill="#F3F1F3"/>
<path d="M28.2365 23.8229H17.762C17.3071 23.8229 16.9385 23.4543 16.9385 22.9993C16.9385 22.5444 17.3071 22.1758 17.762 22.1758H28.2365C28.6914 22.1758 29.0601 22.5444 29.0601 22.9993C29.0601 23.4543 28.6914 23.8229 28.2365 23.8229Z" fill="#F3F1F3"/>
</svg>
