<svg width="24" height="24" viewBox="0 0 24 24" fill="none" xmlns="http://www.w3.org/2000/svg">
    <path
        d="M20.8321 4.783C20.7135 3.22837 19.4313 2 17.8711 2H3.97094C2.33276 2 1 3.3539 1 5.01806V18.9819C1 20.6461 2.33276 22 3.97094 22H20.0291C21.6672 22 23 20.6461 23 18.9819V7.6881C23 6.30666 22.0812 5.13988 20.8321 4.783ZM3.97094 3.4099H17.8711C18.6264 3.4099 19.2593 3.95011 19.4164 4.67008H3.97094C3.38929 4.67008 2.84658 4.84143 2.38788 5.13609V5.01806C2.38788 4.13132 3.09805 3.4099 3.97094 3.4099ZM20.029 20.5901H3.97094C3.09805 20.5901 2.38788 19.8687 2.38788 18.9819V7.6881C2.38788 6.80136 3.09805 6.07993 3.97094 6.07993H20.0291C20.902 6.07993 21.6121 6.80136 21.6121 7.6881V10.1483H17.1871C15.4336 10.1483 14.007 11.5975 14.007 13.3788C14.007 15.1602 15.4336 16.6094 17.1871 16.6094H21.6121V18.9819C21.6121 19.8687 20.9019 20.5901 20.029 20.5901ZM21.6121 15.1995H17.1871C16.1989 15.1995 15.3949 14.3828 15.3949 13.3788C15.3949 12.3749 16.1989 11.5582 17.1871 11.5582H21.6121V15.1995Z"
        fill="#CCCCCC" />
    <path
        d="M17.5 14C17.7761 14 18 13.7761 18 13.5C18 13.2239 17.7761 13 17.5 13C17.2239 13 17 13.2239 17 13.5C17 13.7761 17.2239 14 17.5 14Z"
        fill="#CCCCCC" />
</svg>
