<svg width="24" height="24" viewBox="0 0 24 24" fill="none" xmlns="http://www.w3.org/2000/svg">
<path d="M22.6414 15.7934C22.2753 14.7875 21.1674 14.284 20.181 14.6394C20.2109 14.4518 20.2266 14.2605 20.2266 14.0664V12.0331C20.2266 10.4971 19.7998 8.99471 18.9922 7.68812C18.2853 6.54421 17.3135 5.59419 16.1606 4.91442L17.2331 2.05419C17.3883 1.6405 17.0825 1.19922 16.6406 1.19922H10.7344C10.2925 1.19922 9.98673 1.6405 10.1419 2.05423L11.2144 4.91446C10.0615 5.59427 9.0897 6.54429 8.38276 7.68816C7.57525 8.99471 7.14844 10.4972 7.14844 12.0331V12.9889C6.83102 13.0447 6.51668 13.128 6.20922 13.24L4.90714 13.7139L4.84825 13.5521C4.72873 13.2236 4.36558 13.0543 4.03715 13.1738L1.65858 14.0396C1.40858 14.1306 1.24219 14.3682 1.24219 14.6342V22.1664C1.24219 22.5159 1.52552 22.7992 1.875 22.7992H4.61651C4.69034 22.7992 4.76358 22.7863 4.83293 22.761L7.21151 21.8953C7.46636 21.8025 7.62465 21.563 7.62731 21.307L13.0341 22.05C13.6864 22.1397 14.3504 22.0236 14.9336 21.7179L21.7255 18.1583C22.5799 17.7106 22.9714 16.6998 22.6414 15.7934ZM15.7275 2.46484L14.9365 4.57422H12.4385L11.6475 2.46484H15.7275ZM4.50493 21.5336H2.50781V15.0773L3.8754 14.5795L6.18403 20.9224L4.50493 21.5336ZM21.138 17.0373L14.3461 20.5969C13.9961 20.7803 13.5977 20.85 13.2064 20.7962L7.18366 19.9685L5.33999 14.9031L6.64206 14.4292C7.9484 13.9537 9.41416 14.1372 10.563 14.9199C11.223 15.3695 11.9563 15.6678 12.7428 15.8064L14.4651 16.1101C14.8093 16.1708 15.0391 16.499 14.9784 16.8432C14.9177 17.1874 14.5895 17.4172 14.2453 17.3565L10.221 16.6469C9.87683 16.5862 9.54861 16.816 9.4879 17.1602C9.4272 17.5043 9.65703 17.8326 10.0012 17.8933L14.0255 18.6029C14.6167 18.7071 15.1918 18.5253 15.6099 18.1574L20.5521 15.8533C20.9034 15.6896 21.3196 15.8619 21.4521 16.2262C21.5653 16.5371 21.431 16.8838 21.138 17.0373Z" fill="#F3F1F3"/>
</svg>
