<svg width="24" height="24" viewBox="0 0 24 24" fill="none" xmlns="http://www.w3.org/2000/svg">
<g clip-path="url(#clip0_1849_7977)">
<path d="M19.7786 9.92773V21.109H15.5568V16.2732C15.5568 15.8492 15.2132 15.5056 14.7892 15.5056H9.39049C8.96651 15.5056 8.62291 15.8492 8.62291 16.2732V21.109H4.42676V9.92773H2.8916V21.8765C2.8916 22.3005 3.23524 22.6441 3.65918 22.6441H9.39054C9.81452 22.6441 10.1581 22.3005 10.1581 21.8765V17.0408H14.0216V21.8766C14.0216 22.3006 14.3653 22.6442 14.7892 22.6442H20.5462C20.9702 22.6442 21.3138 22.3005 21.3138 21.8766V9.92773H19.7786Z" fill="#CCCCCC"/>
<path d="M23.7569 11.9763L12.6269 1.56266C12.3339 1.28812 11.8784 1.28634 11.5829 1.55779L0.248199 11.9714C-0.0639416 12.2583 -0.084426 12.7437 0.202402 13.0558C0.353621 13.2209 0.56034 13.3042 0.767855 13.3042C0.95334 13.3042 1.13962 13.2372 1.287 13.1018L12.0977 3.16973L22.7081 13.0972C23.0182 13.3871 23.5034 13.3705 23.793 13.0611C24.0824 12.7515 24.0665 12.2659 23.7569 11.9763Z" fill="#CCCCCC"/>
</g>
<defs>
<clipPath id="clip0_1849_7977">
<rect width="24" height="24" fill="white"/>
</clipPath>
</defs>
</svg>
