<svg width="24" height="24" viewBox="0 0 24 24" fill="none" xmlns="http://www.w3.org/2000/svg">
<path d="M20.3456 8.27303H14.9457V4.95261C14.9449 4.27545 14.686 3.62626 14.2259 3.14743C13.7657 2.66861 13.1419 2.39925 12.4911 2.39844H3.65474C3.00399 2.39925 2.38012 2.66861 1.91998 3.14743C1.45983 3.62626 1.20097 4.27545 1.2002 4.95261V11.0826C1.20097 11.7598 1.45983 12.409 1.91998 12.8878C2.38012 13.3666 3.00399 13.636 3.65474 13.6368V14.7044C3.65437 14.906 3.71164 15.1031 3.81926 15.2706C3.92687 15.4382 4.07996 15.5686 4.25905 15.6454C4.43892 15.7233 4.63702 15.7438 4.82812 15.7043C5.01922 15.6647 5.19468 15.5668 5.33218 15.4232C5.3501 15.4053 5.36652 15.3858 5.38127 15.3649L6.60265 13.6368H9.05474V16.9572C9.05552 17.6344 9.31437 18.2836 9.77452 18.7624C10.2347 19.2412 10.8585 19.5106 11.5093 19.5114H16.9515L18.6697 21.2993C18.807 21.4421 18.9819 21.5394 19.1723 21.5788C19.3628 21.6182 19.5602 21.598 19.7395 21.5207C19.9189 21.4434 20.0722 21.3125 20.1801 21.1445C20.288 20.9765 20.3456 20.779 20.3456 20.577V19.5114C20.9964 19.5106 21.6203 19.2412 22.0804 18.7624C22.5406 18.2836 22.7994 17.6344 22.8002 16.9572V10.8272C22.7994 10.15 22.5406 9.50085 22.0804 9.02203C21.6203 8.5432 20.9964 8.27384 20.3456 8.27303ZM6.35474 12.6151C6.27824 12.6155 6.20289 12.6346 6.1347 12.6707C6.06651 12.7067 6.00738 12.7589 5.96201 12.823L4.63656 14.6927V13.126C4.63656 12.9905 4.58484 12.8605 4.49277 12.7647C4.40071 12.6689 4.27585 12.6151 4.14565 12.6151H3.65474C3.26415 12.6151 2.88956 12.4537 2.61337 12.1663C2.33718 11.8789 2.18201 11.4891 2.18201 11.0826V4.95261C2.18201 4.54616 2.33718 4.15637 2.61337 3.86897C2.88956 3.58157 3.26415 3.42011 3.65474 3.42011H12.4911C12.8817 3.42011 13.2563 3.58157 13.5325 3.86897C13.8087 4.15637 13.9638 4.54616 13.9638 4.95261V8.27303H11.5093C10.987 8.27464 10.4791 8.45106 10.0606 8.7762L8.51965 5.25145C8.4806 5.16226 8.41772 5.08665 8.33851 5.03362C8.2593 4.9806 8.16711 4.95241 8.07292 4.95241C7.97874 4.95241 7.88654 4.9806 7.80733 5.03362C7.72812 5.08665 7.66524 5.16226 7.6262 5.25145L5.17165 10.8706C5.14504 10.9318 5.13028 10.9978 5.12822 11.0649C5.12615 11.1321 5.13683 11.1989 5.15962 11.2618C5.18242 11.3246 5.2169 11.3821 5.26108 11.431C5.30526 11.48 5.35828 11.5194 5.4171 11.547C5.48019 11.5774 5.54885 11.5932 5.61838 11.5935C5.71259 11.5934 5.80481 11.5652 5.88402 11.5121C5.96324 11.459 6.0261 11.3833 6.0651 11.2941L6.827 9.55012H9.31983L9.35469 9.6293C9.16066 9.99648 9.05757 10.4082 9.05474 10.8272V12.6151H6.35474ZM8.8736 8.52845H7.27323L8.07292 6.69762L8.8736 8.52845ZM21.8184 16.9572C21.8184 17.3637 21.6632 17.7535 21.387 18.0409C21.1108 18.3283 20.7362 18.4897 20.3456 18.4897H19.8547C19.7245 18.4897 19.5997 18.5435 19.5076 18.6393C19.4156 18.7351 19.3638 18.8651 19.3638 19.0006V20.577L17.5018 18.6394C17.4098 18.5436 17.2849 18.4897 17.1547 18.4897H11.5093C11.1187 18.4897 10.7441 18.3283 10.4679 18.0409C10.1917 17.7535 10.0366 17.3637 10.0366 16.9572V10.8272C10.0366 10.4208 10.1917 10.031 10.4679 9.74356C10.7441 9.45616 11.1187 9.2947 11.5093 9.2947H20.3456C20.7362 9.2947 21.1108 9.45616 21.387 9.74356C21.6632 10.031 21.8184 10.4208 21.8184 10.8272V16.9572Z" fill="#F3F1F3" stroke="#3A3A3A" stroke-width="0.25"/>
<path d="M18.3824 12.1028H16.4188V11.0811C16.4188 10.9457 16.3671 10.8157 16.275 10.7199C16.1829 10.6241 16.0581 10.5703 15.9279 10.5703C15.7977 10.5703 15.6728 10.6241 15.5808 10.7199C15.4887 10.8157 15.437 10.9457 15.437 11.0811V12.1028H13.4733C13.3431 12.1028 13.2183 12.1566 13.1262 12.2524C13.0341 12.3482 12.9824 12.4782 12.9824 12.6136C12.9824 12.7491 13.0341 12.8791 13.1262 12.9749C13.2183 13.0707 13.3431 13.1245 13.4733 13.1245H17.1159C16.9957 13.9923 16.5715 14.7834 15.9249 15.3456C15.5473 15.0173 15.242 14.6082 15.03 14.1462C15.0033 14.084 14.965 14.028 14.9172 13.9815C14.8694 13.9349 14.8132 13.8988 14.7518 13.8753C14.6904 13.8517 14.6251 13.8411 14.5597 13.8442C14.4943 13.8472 14.4302 13.8638 14.3711 13.8931C14.312 13.9223 14.2591 13.9635 14.2155 14.0143C14.172 14.0651 14.1386 14.1245 14.1174 14.1889C14.0962 14.2533 14.0875 14.3215 14.092 14.3894C14.0965 14.4573 14.114 14.5236 14.1434 14.5844C14.3715 15.0766 14.6834 15.5217 15.0639 15.8983C14.6276 16.0917 14.1581 16.1907 13.6839 16.1895C13.6203 16.1898 13.5575 16.2034 13.499 16.2294C13.4405 16.2554 13.3877 16.2933 13.3435 16.3409C13.2993 16.3885 13.2648 16.4449 13.2419 16.5066C13.219 16.5683 13.2082 16.6342 13.2102 16.7003C13.2142 16.8377 13.2696 16.968 13.3646 17.0634C13.4596 17.1589 13.5867 17.2119 13.7188 17.2112C14.499 17.2109 15.2649 16.994 15.9377 16.5828C16.6167 16.9922 17.3871 17.2089 18.1718 17.2112C18.2354 17.2108 18.2983 17.1973 18.3568 17.1713C18.4152 17.1453 18.4681 17.1073 18.5123 17.0597C18.5564 17.0121 18.5909 16.9558 18.6138 16.8941C18.6367 16.8323 18.6475 16.7665 18.6455 16.7003C18.6416 16.563 18.5862 16.4327 18.4912 16.3372C18.3961 16.2418 18.269 16.1888 18.137 16.1895C17.6777 16.1876 17.2235 16.0893 16.8017 15.9004C17.5329 15.1604 17.9947 14.1793 18.108 13.1245H18.3824C18.5126 13.1245 18.6375 13.0707 18.7295 12.9749C18.8216 12.8791 18.8733 12.7491 18.8733 12.6136C18.8733 12.4782 18.8216 12.3482 18.7295 12.2524C18.6375 12.1566 18.5126 12.1028 18.3824 12.1028Z" fill="#F3F1F3"/>
</svg>
