<svg width="24" height="24" viewBox="0 0 24 24" fill="none" xmlns="http://www.w3.org/2000/svg">
<g clip-path="url(#clip0_1299_6283)">
<path d="M12.0005 3C10.7505 5.5 10.402 6.1969 9.50049 8L12.0005 3L2.8916 9.92745V21.8763C2.8916 22.3002 3.23524 22.6438 3.65918 22.6438H9.39054C9.81452 22.6438 10.1581 22.3002 10.1581 21.8763V17.0405H14.0216V21.8763C14.0216 22.3003 14.3653 22.6439 14.7892 22.6439H20.5462C20.9702 22.6439 21.3138 22.3002 21.3138 21.8763V9.92745L12.0005 3Z" fill="#F3F1F3"/>
<path d="M23.7569 11.9763L12.6269 1.56266C12.3339 1.28812 11.8784 1.28634 11.5829 1.55779L0.248199 11.9714C-0.0639416 12.2583 -0.084426 12.7437 0.202402 13.0558C0.353621 13.2209 0.56034 13.3042 0.767855 13.3042C0.95334 13.3042 1.13962 13.2372 1.287 13.1018L12.0977 3.16973L22.7081 13.0972C23.0182 13.3871 23.5034 13.3705 23.793 13.0611C24.0824 12.7515 24.0665 12.2659 23.7569 11.9763Z" fill="#F3F1F3"/>
</g>
<defs>
<clipPath id="clip0_1299_6283">
<rect width="24" height="24" fill="white"/>
</clipPath>
</defs>
</svg>
