<svg width="24" height="24" viewBox="0 0 24 24" fill="none" xmlns="http://www.w3.org/2000/svg">
<path d="M12.2908 22.8002C14.5635 22.798 16.7663 22.014 18.5292 20.5796C20.2921 19.1453 21.5078 17.1481 21.9723 14.9233C22.4367 12.6986 22.1216 10.3818 21.0797 8.36196C20.0379 6.34212 18.3328 4.74224 16.2508 3.83095C16.1424 3.78294 16.0255 3.75684 15.907 3.75414C15.7884 3.75144 15.6705 3.7722 15.56 3.81522C15.4495 3.85824 15.3485 3.92267 15.263 4.00482C15.1775 4.08697 15.109 4.18521 15.0616 4.2939C15.0142 4.40259 14.9887 4.51958 14.9866 4.63815C14.9845 4.75672 15.0059 4.87453 15.0495 4.98481C15.0931 5.0951 15.1581 5.19567 15.2407 5.28077C15.3233 5.36586 15.4219 5.43379 15.5308 5.48065C17.2363 6.22501 18.6336 7.53393 19.4875 9.18731C20.3415 10.8407 20.6001 12.7377 20.2199 14.5593C19.8397 16.381 18.8439 18.0162 17.3999 19.1899C15.9558 20.3637 14.1517 21.0044 12.2908 21.0044C10.4299 21.0044 8.62576 20.3637 7.18173 19.1899C5.7377 18.0162 4.74186 16.381 4.36166 14.5593C3.98147 12.7377 4.2401 10.8407 5.09407 9.18731C5.94804 7.53393 7.34526 6.22501 9.0508 5.48065C9.15974 5.43379 9.25834 5.36586 9.34094 5.28077C9.42354 5.19567 9.4885 5.0951 9.53211 4.98481C9.57571 4.87453 9.59709 4.75672 9.59501 4.63815C9.59293 4.51958 9.56745 4.40259 9.52001 4.2939C9.47257 4.18521 9.40413 4.08697 9.3186 4.00482C9.23307 3.92267 9.13215 3.85824 9.02164 3.81522C8.91113 3.7722 8.79321 3.75144 8.67465 3.75414C8.5561 3.75684 8.43924 3.78294 8.3308 3.83095C6.2488 4.74224 4.54373 6.34212 3.50189 8.36196C2.46005 10.3818 2.14489 12.6986 2.60932 14.9233C3.07376 17.1481 4.2895 19.1453 6.05243 20.5796C7.81535 22.014 10.0181 22.798 12.2908 22.8002Z" fill="#F3F1F3"/>
<path d="M12.2906 10.1992C12.5293 10.1992 12.7582 10.1044 12.927 9.93561C13.0958 9.76683 13.1906 9.53791 13.1906 9.29922V2.09922C13.1906 1.86052 13.0958 1.63161 12.927 1.46282C12.7582 1.29404 12.5293 1.19922 12.2906 1.19922C12.0519 1.19922 11.823 1.29404 11.6542 1.46282C11.4854 1.63161 11.3906 1.86052 11.3906 2.09922V9.29922C11.3906 9.53791 11.4854 9.76683 11.6542 9.93561C11.823 10.1044 12.0519 10.1992 12.2906 10.1992Z" fill="#F3F1F3"/>
</svg>
