<svg width="52" height="52" viewBox="0 0 52 52" fill="none" xmlns="http://www.w3.org/2000/svg">
<g clip-path="url(#clip0_876_131201)">
<path d="M26 52C40.3594 52 52 40.3594 52 26C52 11.6406 40.3594 0 26 0C11.6406 0 0 11.6406 0 26C0 40.3594 11.6406 52 26 52Z" fill="#F3F1F3"/>
<path d="M28.6985 22.7992V19.7286H35.6847V14.8848H16.2965V19.7286H23.3009V22.7992C17.4327 23.0826 13.0283 24.2604 13.0283 25.6592C13.0283 27.058 17.4275 28.241 23.3009 28.5192V38.6592H28.6985V28.5192C34.5667 28.2384 38.9711 27.0606 38.9711 25.6592C38.9711 24.2578 34.5797 23.0826 28.6985 22.7992ZM25.9997 27.6248C19.6453 27.6248 14.4947 26.642 14.4947 25.459C14.4947 24.4424 18.2465 23.587 23.2957 23.3582V26.8266C24.1641 26.8656 25.0663 26.889 25.9945 26.889C26.9227 26.889 27.8301 26.8656 28.6933 26.8266V23.3582C33.7425 23.587 37.4943 24.4424 37.4943 25.459C37.5047 26.655 32.3541 27.6248 25.9997 27.6248Z" fill="#479951"/>
</g>
<defs>
<clipPath id="clip0_876_131201">
<rect width="52" height="52" fill="white"/>
</clipPath>
</defs>
</svg>
