<svg width="72" height="81" viewBox="0 0 72 81" fill="none" xmlns="http://www.w3.org/2000/svg">
<g opacity="0.7">
<path d="M2.83539 47.3489C4.5413 45.4098 7.3763 45.0048 9.56084 46.3794L12.2608 48.0853C11.6104 46.2566 11.2545 44.2316 11.2545 42.0348C11.2545 34.8921 14.6417 27.7371 20.5817 22.2144C20.3363 22.0548 20.1031 21.8707 19.8822 21.6498C19.0722 20.8644 18.6304 19.7966 18.6304 18.6553C18.6304 16.6671 20.0172 14.998 21.8827 14.5684L19.1458 7.31527C18.7654 5.85481 19.2686 4.36981 20.4345 3.42481C21.6127 2.47981 23.1713 2.33254 24.509 3.01981L26.3867 3.98936C27.2827 4.44345 28.3872 4.13663 28.9149 3.27754C29.6513 2.08709 30.9645 1.39981 32.3636 1.48572C33.7627 1.57163 34.9899 2.41845 35.5667 3.70709C35.7877 4.21027 36.2049 4.57845 36.7204 4.75027C37.2481 4.92209 37.7881 4.86072 38.2667 4.59072L40.2795 3.44936C41.6172 2.68845 43.2127 2.7989 44.4277 3.73163C45.6549 4.66436 46.1704 6.1739 45.7899 7.67118C45.7777 7.70799 45.7654 7.73254 45.7531 7.76936L43.1636 14.5684C43.9122 14.7403 44.6117 15.1207 45.164 15.673C45.9617 16.4707 46.4036 17.5384 46.4036 18.6553C46.4036 20.1894 45.5813 21.5148 44.354 22.2634C50.4781 27.8966 53.9636 35.0271 53.9636 42.0348C53.9636 43.6671 53.7549 45.2135 53.3622 46.6616C59.7072 47.533 65.1195 50.8589 67.169 52.2457L67.5004 51.718C68.6908 49.6439 71.3663 48.9198 73.4404 50.1225L77.2817 52.3439C79.3558 53.5344 80.0799 56.2098 78.8895 58.2839L67.8808 77.3435C67.0708 78.7425 65.5981 79.5157 64.1008 79.5157C63.3645 79.5157 62.6281 79.3316 61.9408 78.9389L58.0872 76.7175C56.0254 75.5025 55.3136 72.8394 56.504 70.7775L56.7495 70.348L51.9263 68.6053C51.6072 68.4948 51.2758 68.4703 50.9445 68.5562L33.1122 72.8394C32.4127 73.0112 31.7008 73.0971 30.989 73.0971C29.0745 73.0971 27.1845 72.4835 25.6013 71.3175L3.63311 55.0194C2.4672 54.148 1.7063 52.8225 1.54675 51.3744C1.41175 49.9016 1.87811 48.4412 2.83539 47.3489ZM43.3354 5.19209C42.6972 4.70118 41.9118 4.65209 41.2122 5.04481L39.1995 6.18618C38.279 6.70163 37.1745 6.81209 36.1681 6.49299C35.1618 6.16163 34.3395 5.42527 33.8977 4.45572C33.6031 3.79299 32.9895 3.37572 32.2654 3.32663C31.5413 3.27754 30.8786 3.62118 30.4981 4.24709C29.4795 5.91618 27.3072 6.52981 25.5645 5.6339L23.6867 4.66436C22.9872 4.30845 22.214 4.38209 21.6004 4.87299C20.9867 5.3639 20.7413 6.10027 20.9131 6.76299L23.8095 14.4457H41.2613L44.0349 7.15572C44.219 6.40709 43.949 5.67072 43.3354 5.19209ZM43.8877 16.9739C43.4458 16.5321 42.8445 16.2866 42.2186 16.2866H41.9117H41.8995H23.1713H23.159H22.8522C21.539 16.2866 20.4836 17.3544 20.4836 18.6553C20.4836 19.2934 20.729 19.8948 21.1954 20.3489C21.6372 20.803 22.2263 21.0484 22.8645 21.0484H42.2063C43.5195 21.0484 44.5749 19.9807 44.5749 18.6675C44.5872 18.0294 44.3417 17.428 43.8877 16.9739ZM52.1472 42.0348C52.1472 35.2357 48.5636 28.2771 42.3167 22.8894H42.2186H22.8522H22.5822C16.5563 28.1544 13.0954 35.113 13.0954 42.0348C13.0954 45.0416 13.7827 47.668 15.0713 49.8648L22.2999 54.4425C23.0486 53.1662 24.3986 52.2948 25.9327 52.2089L36.3522 51.6075C37.1254 51.5584 37.9108 51.2394 38.5981 50.6625C42.7586 47.2262 47.2995 46.2444 51.5458 46.4775C51.9263 45.1521 52.1472 43.6794 52.1472 42.0348ZM59.0199 75.1221L62.8736 77.3435C64.064 78.0307 65.5981 77.6134 66.2977 76.4107L77.294 57.3512C77.9813 56.1484 77.564 54.6144 76.3736 53.9271L72.5322 51.7057C72.1395 51.4848 71.7099 51.3744 71.2804 51.3744C70.409 51.3744 69.5622 51.8284 69.0958 52.6385L58.0995 71.698C57.4122 72.8762 57.8172 74.4225 59.0199 75.1221ZM3.39993 51.1535C3.49811 52.1107 3.97675 52.9453 4.74993 53.5221L26.7181 69.8203C28.4363 71.0966 30.6208 71.5385 32.6949 71.0353L50.5272 66.7521C50.7972 66.6907 51.0795 66.6539 51.3617 66.6539C51.7667 66.6539 52.1717 66.7275 52.5645 66.8625L57.6945 68.7035L66.2731 53.8535C63.2049 51.7303 50.0731 43.5812 39.7763 52.0984C38.7822 52.9207 37.6286 53.3994 36.4627 53.4607L26.0431 54.0621C24.7913 54.1357 23.7604 55.0807 23.564 56.3203C23.4536 57.0566 23.6377 57.7684 24.104 58.3575C24.5704 58.9466 25.2086 59.2903 25.9449 59.3639L43.274 60.9594C43.7772 61.0084 44.1577 61.4503 44.1086 61.9657C44.0595 62.4689 43.6177 62.8494 43.1022 62.8003L25.7731 61.1803C24.5336 61.0698 23.4167 60.4562 22.6436 59.4744C21.9195 58.5539 21.5881 57.4125 21.7108 56.2589L8.56675 47.938C7.14311 47.0421 5.31448 47.2998 4.20993 48.5639C3.58402 49.288 3.28947 50.2085 3.39993 51.1535Z" fill="#F3F1F3"/>
<path d="M29.4641 44.759C28.7272 43.8826 28.132 43.0253 27.557 42.1951C27.0316 41.4402 26.5761 40.6335 26.1966 39.7862C25.9591 39.2721 25.854 38.7515 26.3684 38.4168C27.8427 37.4577 28.1448 38.3735 28.9461 39.4361C29.4211 40.0657 30.1214 41.104 30.5603 41.76C30.9795 42.3865 31.4905 41.2558 31.6945 40.9367C32.4196 39.8029 34.3041 37.027 35.0828 36.001C35.8222 35.0269 38.2085 32.2981 38.6534 31.8641C39.032 31.4945 39.8315 30.6839 40.3691 31.1311C40.934 31.6009 41.21 32.494 40.8129 33.0747C40.1213 34.0857 39.035 35.0475 38.2833 36.0101C36.7618 37.9587 35.3213 40.0592 33.9385 42.1506C33.4686 42.8613 32.8089 44.0516 32.3994 44.8223C31.6332 46.2642 30.9603 46.5386 29.4641 44.759Z" fill="#F3F1F3"/>
</g>
</svg>
