<svg width="46" height="46" viewBox="0 0 46 46" fill="none" xmlns="http://www.w3.org/2000/svg">
    <rect width="46" height="46" rx="23" fill="#CCCCCC" />
    <path
        d="M30.5406 21.3897C29.766 20.2329 28.9198 19.3481 28.1007 18.81C28.2866 18.5273 28.3952 18.1895 28.3952 17.8266C28.3952 17.0933 27.953 16.4616 27.3214 16.1832L27.9872 14.4468C28.0913 14.175 28.4082 13.348 27.9347 12.7303C27.4583 12.1091 26.6041 12.1978 25.9802 12.2625C25.8335 12.2778 25.6949 12.2922 25.5977 12.2935C25.1275 12.2995 24.8571 12.1212 24.5147 11.895C24.1634 11.6628 23.728 11.375 23.1078 11.375C23.099 11.375 23.0901 11.3751 23.0812 11.3752C22.447 11.3664 22.003 11.6596 21.6463 11.8952C21.304 12.1214 21.0324 12.3004 20.5637 12.2936C20.4662 12.2922 20.3276 12.2778 20.1809 12.2626C19.557 12.1978 18.7028 12.1091 18.2265 12.7304C17.7528 13.348 18.0698 14.175 18.174 14.4469L18.8397 16.1833C18.2082 16.4617 17.766 17.0933 17.766 17.8266C17.766 18.1585 17.8569 18.4693 18.0144 18.7363C17.1598 19.2652 16.2703 20.1783 15.4593 21.3897C14.1086 23.4072 13.334 25.7234 13.334 27.7445C13.334 29.7492 14.0931 31.4285 15.5294 32.6009C17.1749 33.9441 19.6884 34.6251 23.0002 34.6251C26.3119 34.6251 28.8254 33.9441 30.4709 32.6009C31.9071 31.4286 32.6663 29.7494 32.6663 27.7447C32.6663 25.7235 31.8915 23.4073 30.5406 21.3898L30.5406 21.3897ZM20.0357 13.6613C20.2146 13.6799 20.3836 13.6974 20.5444 13.6997C21.4472 13.7126 22.0103 13.3401 22.4214 13.0686C22.7133 12.8758 22.8649 12.7813 23.0552 12.7813C23.0591 12.7813 23.0631 12.7813 23.067 12.7814L23.0812 12.7817L23.0955 12.7814C23.2906 12.7781 23.4421 12.8717 23.7394 13.0682C24.1505 13.3399 24.7124 13.7115 25.617 13.6997C25.7775 13.6974 25.9465 13.6799 26.1255 13.6613C26.2998 13.6432 26.5912 13.613 26.7695 13.6249C26.7567 13.6945 26.7298 13.798 26.6741 13.9435L25.8737 16.0313H20.2874L19.4871 13.9435C19.4313 13.798 19.4044 13.6945 19.3916 13.6249C19.5702 13.6129 19.8614 13.6432 20.0357 13.6613ZM19.5613 18.2158C19.3504 18.2158 19.1722 18.0376 19.1722 17.8266C19.1722 17.6157 19.3504 17.4375 19.5613 17.4375H26.5997C26.8107 17.4375 26.9889 17.6157 26.9889 17.8266C26.9889 18.0376 26.8107 18.2158 26.5997 18.2158H19.5613ZM29.5816 31.5115C28.1937 32.6444 25.9794 33.2188 23.0002 33.2188C20.021 33.2188 17.8065 32.6443 16.4186 31.5114C15.3049 30.6023 14.7402 29.3349 14.7402 27.7445C14.7402 26.0206 15.4459 23.9375 16.6278 22.172C17.7486 20.4979 18.9633 19.622 19.584 19.622H26.4151C27.036 19.622 28.2511 20.498 29.3721 22.1721C30.5543 23.9376 31.26 26.0208 31.26 27.7447C31.26 29.3351 30.6953 30.6024 29.5816 31.5115H29.5816Z"
        fill="#2FA926" />
</svg>
